<?xml version="1.0" encoding="UTF-8" standalone="no"?>
<!-- Created with Inkscape (http://www.inkscape.org/) -->

<svg
   xmlns:dc="http://purl.org/dc/elements/1.1/"
   xmlns:cc="http://creativecommons.org/ns#"
   xmlns:rdf="http://www.w3.org/1999/02/22-rdf-syntax-ns#"
   xmlns:svg="http://www.w3.org/2000/svg"
   xmlns="http://www.w3.org/2000/svg"
   xmlns:xlink="http://www.w3.org/1999/xlink"
   xmlns:sodipodi="http://sodipodi.sourceforge.net/DTD/sodipodi-0.dtd"
   xmlns:inkscape="http://www.inkscape.org/namespaces/inkscape"
   width="1100.67"
   height="464.79001"
   id="svg3972"
   sodipodi:version="0.32"
   inkscape:version="0.48.2 r9819"
   version="1.0"
   sodipodi:docname="Cartography_of_North_America.svg"
   inkscape:output_extension="org.inkscape.output.svg.inkscape">
  <defs
     id="defs3974">
    <linearGradient
       id="linearGradient15386">
      <stop
         style="stop-color:#35a5ec;stop-opacity:1"
         offset="0"
         id="stop15388" />
      <stop
         style="stop-color:#2681da;stop-opacity:1"
         offset="1"
         id="stop15390" />
    </linearGradient>
    <radialGradient
       inkscape:collect="always"
       xlink:href="#linearGradient15386"
       id="radialGradient3791"
       gradientUnits="userSpaceOnUse"
       gradientTransform="matrix(0.9590971,0,0,1.0620716,256.90022,-91.285194)"
       cx="-372.03143"
       cy="263.1394"
       fx="-372.03143"
       fy="263.1394"
       r="127.25526" />
    <inkscape:perspective
       sodipodi:type="inkscape:persp3d"
       inkscape:vp_x="0 : 526.18109 : 1"
       inkscape:vp_y="0 : 1000 : 0"
       inkscape:vp_z="744.09448 : 526.18109 : 1"
       inkscape:persp3d-origin="372.04724 : 350.78739 : 1"
       id="perspective3980" />
    <filter
       id="filter7022"
       inkscape:label="Drop shadow"
       width="1.5"
       height="1.5"
       x="-0.25"
       y="-0.25"
       color-interpolation-filters="sRGB">
      <feGaussianBlur
         id="feGaussianBlur7024"
         in="SourceAlpha"
         stdDeviation="3"
         result="blur" />
      <feColorMatrix
         id="feColorMatrix7026"
         result="bluralpha"
         type="matrix"
         values="1 0 0 0 0 0 1 0 0 0 0 0 1 0 0 0 0 0 0.808 0 " />
      <feOffset
         id="feOffset7028"
         in="bluralpha"
         dx="-3"
         dy="3"
         result="offsetBlur" />
      <feMerge
         id="feMerge7030">
        <feMergeNode
           id="feMergeNode7032"
           in="offsetBlur" />
        <feMergeNode
           id="feMergeNode7034"
           in="SourceGraphic" />
      </feMerge>
    </filter>
    <filter
       id="filter7036"
       inkscape:label="Drop shadow"
       width="1.5"
       height="1.5"
       x="-0.25"
       y="-0.25"
       color-interpolation-filters="sRGB">
      <feGaussianBlur
         id="feGaussianBlur7038"
         in="SourceAlpha"
         stdDeviation="3"
         result="blur" />
      <feColorMatrix
         id="feColorMatrix7040"
         result="bluralpha"
         type="matrix"
         values="1 0 0 0 0 0 1 0 0 0 0 0 1 0 0 0 0 0 0.808 0 " />
      <feOffset
         id="feOffset7042"
         in="bluralpha"
         dx="-3"
         dy="3"
         result="offsetBlur" />
      <feMerge
         id="feMerge7044">
        <feMergeNode
           id="feMergeNode7046"
           in="offsetBlur" />
        <feMergeNode
           id="feMergeNode7048"
           in="SourceGraphic" />
      </feMerge>
    </filter>
    <filter
       id="filter7050"
       inkscape:label="Drop shadow"
       width="1.5"
       height="1.5"
       x="-0.25"
       y="-0.25"
       color-interpolation-filters="sRGB">
      <feGaussianBlur
         id="feGaussianBlur7052"
         in="SourceAlpha"
         stdDeviation="3"
         result="blur" />
      <feColorMatrix
         id="feColorMatrix7054"
         result="bluralpha"
         type="matrix"
         values="1 0 0 0 0 0 1 0 0 0 0 0 1 0 0 0 0 0 0.808 0 " />
      <feOffset
         id="feOffset7056"
         in="bluralpha"
         dx="-3"
         dy="3"
         result="offsetBlur" />
      <feMerge
         id="feMerge7058">
        <feMergeNode
           id="feMergeNode7060"
           in="offsetBlur" />
        <feMergeNode
           id="feMergeNode7062"
           in="SourceGraphic" />
      </feMerge>
    </filter>
    <filter
       id="filter7064"
       inkscape:label="Drop shadow"
       width="1.5"
       height="1.5"
       x="-0.25"
       y="-0.25"
       color-interpolation-filters="sRGB">
      <feGaussianBlur
         id="feGaussianBlur7066"
         in="SourceAlpha"
         stdDeviation="3"
         result="blur" />
      <feColorMatrix
         id="feColorMatrix7068"
         result="bluralpha"
         type="matrix"
         values="1 0 0 0 0 0 1 0 0 0 0 0 1 0 0 0 0 0 0.808 0 " />
      <feOffset
         id="feOffset7070"
         in="bluralpha"
         dx="-3"
         dy="3"
         result="offsetBlur" />
      <feMerge
         id="feMerge7072">
        <feMergeNode
           id="feMergeNode7074"
           in="offsetBlur" />
        <feMergeNode
           id="feMergeNode7076"
           in="SourceGraphic" />
      </feMerge>
    </filter>
    <filter
       id="filter7078"
       inkscape:label="Drop shadow"
       width="1.5"
       height="1.5"
       x="-0.25"
       y="-0.25"
       color-interpolation-filters="sRGB">
      <feGaussianBlur
         id="feGaussianBlur7080"
         in="SourceAlpha"
         stdDeviation="3"
         result="blur" />
      <feColorMatrix
         id="feColorMatrix7082"
         result="bluralpha"
         type="matrix"
         values="1 0 0 0 0 0 1 0 0 0 0 0 1 0 0 0 0 0 0.808 0 " />
      <feOffset
         id="feOffset7084"
         in="bluralpha"
         dx="-3"
         dy="3"
         result="offsetBlur" />
      <feMerge
         id="feMerge7086">
        <feMergeNode
           id="feMergeNode7088"
           in="offsetBlur" />
        <feMergeNode
           id="feMergeNode7090"
           in="SourceGraphic" />
      </feMerge>
    </filter>
    <filter
       id="filter7092"
       inkscape:label="Drop shadow"
       width="1.5"
       height="1.5"
       x="-0.25"
       y="-0.25"
       color-interpolation-filters="sRGB">
      <feGaussianBlur
         id="feGaussianBlur7094"
         in="SourceAlpha"
         stdDeviation="3"
         result="blur" />
      <feColorMatrix
         id="feColorMatrix7096"
         result="bluralpha"
         type="matrix"
         values="1 0 0 0 0 0 1 0 0 0 0 0 1 0 0 0 0 0 0.808 0 " />
      <feOffset
         id="feOffset7098"
         in="bluralpha"
         dx="-3"
         dy="3"
         result="offsetBlur" />
      <feMerge
         id="feMerge7100">
        <feMergeNode
           id="feMergeNode7102"
           in="offsetBlur" />
        <feMergeNode
           id="feMergeNode7104"
           in="SourceGraphic" />
      </feMerge>
    </filter>
    <filter
       id="filter7106"
       inkscape:label="Drop shadow"
       width="1.5"
       height="1.5"
       x="-0.25"
       y="-0.25"
       color-interpolation-filters="sRGB">
      <feGaussianBlur
         id="feGaussianBlur7108"
         in="SourceAlpha"
         stdDeviation="3"
         result="blur" />
      <feColorMatrix
         id="feColorMatrix7110"
         result="bluralpha"
         type="matrix"
         values="1 0 0 0 0 0 1 0 0 0 0 0 1 0 0 0 0 0 0.808 0 " />
      <feOffset
         id="feOffset7112"
         in="bluralpha"
         dx="-3"
         dy="3"
         result="offsetBlur" />
      <feMerge
         id="feMerge7114">
        <feMergeNode
           id="feMergeNode7116"
           in="offsetBlur" />
        <feMergeNode
           id="feMergeNode7118"
           in="SourceGraphic" />
      </feMerge>
    </filter>
    <filter
       inkscape:collect="always"
       id="filter7152">
      <feGaussianBlur
         inkscape:collect="always"
         stdDeviation="0.56593086"
         id="feGaussianBlur7154" />
    </filter>
    <filter
       inkscape:collect="always"
       id="filter7156">
      <feGaussianBlur
         inkscape:collect="always"
         stdDeviation="4.3865693"
         id="feGaussianBlur7158" />
    </filter>
    <filter
       inkscape:collect="always"
       id="filter7160"
       x="-0.054307301"
       width="1.1086146"
       y="-0.1428518"
       height="1.2857036">
      <feGaussianBlur
         inkscape:collect="always"
         stdDeviation="4.3865693"
         id="feGaussianBlur7162" />
    </filter>
  </defs>
  <sodipodi:namedview
     id="base"
     pagecolor="#ffffff"
     bordercolor="#666666"
     borderopacity="1.0"
     inkscape:pageopacity="0.0"
     inkscape:pageshadow="2"
     inkscape:zoom="0.6241764"
     inkscape:cx="448.4583"
     inkscape:cy="227.48719"
     inkscape:document-units="px"
     inkscape:current-layer="layer1"
     showgrid="false"
     inkscape:window-width="1600"
     inkscape:window-height="830"
     inkscape:window-x="-9"
     inkscape:window-y="-9"
     inkscape:window-maximized="1"
     fit-margin-top="0"
     fit-margin-left="0"
     fit-margin-right="0"
     fit-margin-bottom="0" />
  <metadata
     id="metadata3977">
    <rdf:RDF>
      <cc:Work
         rdf:about="">
        <dc:format>image/svg+xml</dc:format>
        <dc:type
           rdf:resource="http://purl.org/dc/dcmitype/StillImage" />
        <dc:title></dc:title>
      </cc:Work>
    </rdf:RDF>
  </metadata>
  <g
     inkscape:label="Capa 1"
     inkscape:groupmode="layer"
     id="layer1"
     transform="translate(198.30522,-91.320327)">
    <g
       id="g4307"
       transform="matrix(1.3248506,-0.66298941,0.66298941,1.3248506,-475.71271,22.434638)"
       style="opacity:0.32394366;filter:url(#filter7152)">
      <path
         style="fill:#008080;fill-opacity:1;fill-rule:nonzero;stroke:none"
         d="m 284.59131,500.7557 1.87028,1.99773 1.42223,-5.95654 -1.42223,-0.29634 3.40813,-7.379 -5.68985,-0.29634 -8.53432,3.70431 -1.42318,6.81594 -3.40717,4.26737 -3.14123,-0.56305 -8.80218,3.14126 -3.14123,-2.57821 -2.84445,0.29636 -8.53527,-13.36518 -0.26594,-2.28186 -0.29678,-7.97169 0.29678,-3.14126 1.68913,-0.82976 -0.56369,1.68916 1.42223,-3.97103 -1.12544,-5.42311 -1.42223,-0.26672 1.42223,0 0.82963,-3.70432 3.14122,-1.42246 -1.12641,-1.1261 2.54864,0.2667 -0.85951,0.56306 4.26764,-2.54858 0.29678,-2.84491 1.98495,0.56307 -1.12641,0.8594 3.67504,-1.7188 5.98663,0.29633 1.71804,-1.42246 3.97183,2.84493 1.42222,-1.42247 1.42223,0.8594 -0.56272,-1.9855 1.68913,0.2667 1.719,2.28187 1.42222,-1.42247 -2.84541,-1.1261 1.719,-1.7188 -1.719,-0.29636 -2.84445,-0.56305 8.53431,-1.68917 0.29678,-2.01515 0.82963,1.71881 -0.82963,0.85939 3.67408,-2.28185 -0.56272,1.1261 3.70395,-1.1261 -1.12545,0.56306 3.40813,-0.26672 0.56273,1.12612 0.8595,1.42245 2.84444,-1.98551 1.12641,-0.8594 1.42223,0.29634 0.56368,0.26672 4.56345,3.70432 0,4.26737 1.42223,-0.56307 -0.56272,2.28187 1.42222,1.98551 1.42223,-0.56305 1.68913,4.26737 2.84541,0.82977 0,2.01514 2.01482,-0.8594 0,0.8594 0.82962,-7.97168 -6.25258,-12.53542 -2.54863,-4.83043 2.54863,-5.12677 -0.85949,-1.12612 1.15627,0.8594 1.68914,-2.5782 3.43704,-5.39348 7.11208,-7.40863 -2.28173,0.29634 1.42223,-1.71881 -1.98495,-0.2667 3.11136,-0.29635 1.15628,-1.68917 -0.8595,-1.42246 -0.29678,1.68918 -0.26691,-1.42246 -2.28173,0.85939 1.42223,-1.98551 1.42319,0.56305 -1.15628,-2.54856 2.28173,3.40797 -2.54864,-4.26738 -3.70395,-0.56306 1.98591,0.26672 -1.68913,-1.68916 1.42222,1.12611 0.26691,-1.71881 -0.26691,-0.11853 0,-1.30394 -4.00073,-0.82976 0,-1.42245 3.70396,1.68917 -2.54864,-4.83043 2.25282,-1.98553 -0.82963,3.40799 3.40717,3.14125 -0.29581,3.97104 1.42222,-6.54924 -2.84445,-5.12677 2.84445,2.5782 1.42223,-4.26737 -1.42223,-2.84491 1.42223,-3.14127 5.98663,-3.40796 -0.56272,-2.28187 1.12545,1.42246 3.40813,-2.28186 -0.8595,-1.42246 -0.26691,1.7188 -3.14123,-1.9855 0.29678,-6.54925 1.12642,-0.56305 -0.56369,-1.42245 1.9859,0 -0.26691,-3.70433 0.56273,1.7188 1.12641,-2.01514 1.15628,0.8594 1.98494,-3.40797 -1.42221,-1.42245 2.28172,0 3.97085,-5.98618 -0.56272,2.84491 1.12641,-0.56305 2.84445,-1.42246 -1.12641,2.28185 -1.71804,-0.85939 -2.54864,5.42311 1.12546,3.11163 2.28172,0.56306 1.12641,-6.25289 2.01481,-0.26671 -0.59259,-1.15575 4.86023,-4.83042 0.82964,-1.12612 -1.39236,-0.35561 2.25185,-3.34871 0.29679,-0.56306 -0.56369,-0.29635 -1.15532,-0.29634 0,3.14126 -0.8595,0.56307 0.59259,-3.40799 -1.42222,-2.8449 -0.8595,5.39349 1.60048,1.62989 -1.8963,-0.47416 -3.11231,2.54856 -4.86024,-0.85939 -1.68913,-2.8449 -1.42223,0.8594 0,-3.70433 -1.719,1.7188 -0.8595,-1.12611 -2.54767,0.82977 3.70396,-1.98551 1.42221,-2.54857 -1.98494,-2.5782 -4.00072,1.42245 -3.70492,4.56371 -4.83036,10.81662 1.719,-5.42313 -0.8595,-1.9855 4.56345,-7.1123 0.2669,-3.40797 0.29679,-1.42245 14.78689,-7.67535 0.29678,0 0.26691,-5.42312 3.14122,-2.84492 0.85951,-4.26736 -2.01579,-0.56307 1.42319,-0.8594 -2.25281,0.5927 1.42221,-0.8594 -1.42221,-0.29635 -0.29582,-2.54856 -2.54864,-0.85941 -0.8595,2.54857 -0.8595,-2.25224 -2.54863,0.26672 -2.01482,4.83044 1.42222,-4.53408 -1.68912,2.28185 2.84444,-4.86006 -1.98495,0.29633 0,-0.8594 -1.719,1.42248 -0.8595,-1.12613 -0.26691,1.12613 -0.29581,-1.12613 -0.0598,0.62232 -1.06667,0.80014 0,-1.15574 -0.29581,0.59268 -0.85949,1.68917 -1.12642,-3.40797 0,1.42245 -0.56272,-1.12609 -2.5785,0.56304 0.29581,-1.42245 -1.42222,0.85941 0.56369,-0.85941 -1.4232,0 0.85951,-0.8594 -2.28173,0.29634 1.98591,-0.59269 -0.56369,-1.98552 -3.14122,-0.2667 0.8595,-1.15575 -1.98495,-0.56307 -0.29678,-1.1261 -1.1264,1.68917 0.29677,-2.54857 -1.42222,1.68916 0.26595,-2.25223 -1.12545,-1.15574 -1.71901,0.85941 0.85951,-1.12611 -4.26764,-2.01515 0,-1.12612 -1.12641,0 0.26691,2.84491 1.71901,1.12612 -1.15532,1.15575 1.15532,0.26669 -0.85951,1.71881 1.42223,1.98552 -1.98495,-1.98552 -0.85951,4.56373 -1.71899,-2.01514 -0.26691,2.8449 -0.85951,-3.40797 -3.97085,1.7188 0.26691,-1.42245 1.15531,0.56305 -0.29582,-2.28185 -1.1264,0.56305 -1.15532,-2.54856 -2.28173,0.56304 2.28173,-1.1261 -1.68913,-4.00066 -0.29678,1.42245 -3.97086,-0.26671 -0.59259,-1.7188 -1.42222,0.56306 -4.26764,-2.54857 -0.82963,1.98551 -6.28246,-0.26672 -0.82963,1.68917 2.25186,2.5782 -0.26691,3.40798 1.42223,-0.56306 1.68913,3.11164 -0.82964,6.54921 4.26764,1.71882 3.67505,6.25288 0,-0.56305 1.71804,1.42245 -1.71804,0.26672 0,-1.12612 -1.12641,5.39349 -4.26764,4.26737 2.54864,1.42246 4.00072,7.67535 -1.15531,2.5782 1.42222,2.28186 -1.98591,-1.7188 -0.56272,2.54856 -0.56273,0 -1.719,0 -0.26691,-1.9855 -5.98664,-4.26738 -2.54767,-9.39415 -7.11304,1.15575 -15.08368,-7.11229 -4.83035,2.28186 0.82962,-2.01515 -2.54862,-5.68983 -2.28173,0 0,1.42246 -1.68914,-2.54857 -0.29677,-6.25289 2.84541,-5.42311 -0.8595,-0.82977 3.40814,-3.14126 -1.42223,-0.8594 2.28172,0 1.15532,-1.68917 -2.57754,-2.01515 -1.12641,0.85939 0.26691,-1.12611 -3.40813,-0.29634 0,-1.42247 6.54936,2.84492 0.8595,-3.11161 3.70395,-0.59271 1.42222,-4.26736 -7.97158,-2.25223 1.98591,-0.5927 4.83036,2.01516 1.98494,-3.70433 -1.98494,-1.42244 5.68986,0.8594 -3.40814,-2.84493 2.28173,-0.29634 1.42222,1.98551 2.28172,-5.12677 -3.43704,-3.40797 1.719,-1.12611 -1.42318,-0.85939 0.56369,-1.42248 -3.11232,-0.56305 0.83059,-0.8594 -4.83132,0.29636 2.5785,3.97101 -1.42222,0.29635 0,5.95654 -1.42223,1.15574 -2.84541,-7.11228 -2.01481,-1.15576 -0.56273,4.56373 -2.84541,-4.56373 1.719,-0.56303 -4.00072,-0.56307 0.29581,-1.15574 0,-1.12612 1.42318,0.29636 -5.12713,-6.8456 -2.54863,4.83044 1.12641,0.29634 -0.26691,2.84491 0,0.56307 4.53454,1.7188 -1.42319,0.26672 -0.26594,2.28185 1.12544,-1.12612 0.56369,1.68917 -2.84541,2.28187 0.56272,3.70432 -2.25185,-1.12613 0.82963,-3.4376 -1.12641,1.15574 0.29678,-1.15574 -1.42223,-0.82976 -2.28173,0.56305 0.85951,1.98552 1.42222,-0.29635 0,2.01514 -2.28173,-2.57819 -0.29677,1.7188 -1.98592,0.26671 -3.70394,0 -1.98495,-2.25223 -2.54863,0 -1.71901,-3.43759 -4.56345,2.28183 2.01483,0.85941 3.11134,-1.7188 -4.26762,3.14127 1.42318,2.84492 -0.2669,1.12611 -1.15628,-0.56307 0.85949,2.57821 -1.98494,-3.14125 1.12545,-0.8594 -3.11136,-3.40799 -3.14123,1.12612 -5.39309,-1.42246 0.26595,-1.68916 2.28269,-0.29635 -1.12641,-2.28185 -3.14123,-0.82978 -3.70394,-3.14126 -2.28269,-1.98551 -4.26668,0.56305 0.85951,-2.54857 0.29581,-0.59269 -0.56272,0.59269 -2.28172,2.25223 -0.56369,-3.40797 -0.5926,-2.54857 0,1.9855 -1.1264,0 -5.12618,1.12612 2.5785,-1.98552 1.12545,-0.8594 -1.98495,0.59271 -4.56442,0.82976 -1.68913,-0.26672 0.56369,-1.98551 -3.14122,0.82976 -0.26691,2.5782 -3.70492,-6.25288 -1.71804,-3.4376 -0.56368,-0.82977 -7.4079,-6.84557 -0.56369,-1.68918 1.15629,-0.59268 -1.71901,-1.42247 0.29581,-1.68917 -2.01481,0.26672 1.719,-0.82977 0.29581,-1.15575 -3.14122,0.29635 -1.42223,-1.42246 -1.98495,0.85941 0.26595,-0.5927 0.5926,-0.26671 -2.57754,-0.8594 -1.42223,0.29634 -4.83132,0.82977 -1.98495,-1.98551 -2.28173,0.56305 -0.85949,4.56373 -1.68913,1.7188 1.42221,2.54857 -1.719,1.42245 0.85951,1.71882 -1.15532,-1.71882 1.15532,-2.28184 -1.98495,3.70429 -2.5785,-2.8449 1.42222,-1.98552 -5.95677,-1.98551 0,3.40797 -1.15532,-0.85941 -1.68913,2.54857 1.98495,4.00067 0.8595,-0.56306 -0.8595,1.12612 2.84541,0 0.56272,1.42246 -1.98495,0 -1.15627,2.28186 -1.68914,0.56305 -0.85949,-1.42246 -2.84445,0.29635 -0.29679,-2.01514 -7.6748,2.28184 -0.8595,1.71881 0.8595,1.12611 -1.12641,0 0.26691,0.8594 0.5926,1.98553 -1.42223,-0.85941 -2.28173,2.28185 3.11136,1.98552 -2.84541,4.00068 -2.25186,0.26669 3.40813,1.42247 0,0.8594 -0.56368,3.14125 2.84542,-1.71881 -1.15629,1.98554 2.84542,0.59267 -2.84542,0.82977 -2.84444,3.14127 -6.54937,-0.56307 -0.82963,0 -1.719,1.68918 -1.42223,-2.54858 -2.84541,0.29635 0.29678,1.68917 1.98591,-0.8594 -0.56369,1.15575 3.11232,0.56305 0.29582,0.29634 -0.56273,1.12613 12.20936,-1.42247 3.14122,0.8594 3.40814,-1.15574 -0.8595,-1.68918 1.15532,-1.15574 11.0839,-1.98551 2.28172,1.15575 -2.28172,0 0.56272,2.54857 -1.42222,-2.28188 -2.25282,-0.26669 -3.70395,2.54857 1.42222,1.12611 -2.84444,1.15574 4.26667,0.85941 0.8595,-1.15574 -0.29581,1.15574 1.12544,-1.42247 1.15628,1.68917 1.98495,-0.8594 0,-2.25222 2.84541,-0.59269 -1.42223,1.42246 1.42223,-0.56306 -0.56272,1.15574 2.28173,0 -1.42223,0.56306 0.82963,0.85941 -1.12641,0 1.12641,0.2667 -0.82963,1.15576 1.68913,1.1261 -0.2669,2.28187 5.09726,2.54857 0.59259,2.84491 0.82964,-0.26671 1.42221,-0.29634 0.5926,1.42246 -1.42222,0.56304 0.82962,-1.68916 -1.68913,1.12612 2.54864,8.23839 1.42222,0 -0.2669,-3.67467 0.83059,1.98551 0.8595,-1.15575 -1.12641,2.84491 1.42222,1.42246 2.28173,-5.09713 -1.42222,4.83042 0.82963,1.12611 1.42222,-0.8594 -1.68913,1.7188 1.42318,1.42247 -1.15627,0 0.8595,1.71881 -0.8595,-1.42247 0.29678,1.68916 -1.42319,0.29635 2.54863,5.68984 -2.84445,1.98551 1.71901,-0.56306 1.71804,-0.56305 0,1.68916 -2.01482,4.00066 2.5785,-1.7188 1.68913,-2.28186 -2.25281,3.40797 0.83059,0.85941 -2.25282,0.56304 -0.59259,1.15576 1.719,1.42245 -1.719,0.56306 0.8595,3.14127 2.57851,-2.01515 -0.85951,1.7188 1.42223,0.8594 -1.98591,-1.15574 1.42319,4.56371 -2.28174,1.12612 1.42223,-0.56306 -0.29677,1.42246 2.84541,-1.12611 -3.40814,2.84492 0,1.68916 1.42222,-0.56307 -1.98495,0.85941 1.68914,0.56306 -1.98591,0.29633 2.84444,0.85941 -2.54767,0 3.40718,1.42247 -1.12544,0 0.56272,0.82976 2.28172,-0.56306 -2.57851,0.85941 1.15629,1.42246 1.1264,-1.12612 -0.85949,1.12612 1.39235,0.56305 -0.23704,0.29635 2.25282,0 -1.98591,1.68916 1.15531,1.42247 1.12641,-0.82977 0.56273,-0.5927 0,0.85941 0.29678,1.42246 -1.42223,0.56306 2.28172,-0.26673 -0.85949,2.84493 1.42222,1.68917 -1.719,6.54923 0.29678,-3.11163 -2.28173,1.98551 2.28173,-3.14126 -5.12714,-2.54857 -0.56272,6.81595 1.12641,0 -1.68913,2.84491 1.68913,0.56306 -1.4232,-0.26672 -5.9558,13.92824 -0.29677,6.25289 -2.28173,4.00066 0.29678,7.379 1.42222,4.56372 2.54864,0.29634 0,2.84491 -1.12642,-1.71879 -0.29581,2.54856 3.99977,10.54989 -0.5926,2.54858 2.01579,1.12611 4.83035,2.84491 3.11136,4.26738 3.70395,15.08399 0.56368,1.15574 5.42296,6.81595 -1.15628,1.98551 1.15628,1.42245 -4.26764,-1.1261 5.12714,5.39347 1.68913,-0.8594 3.40813,4.26737 -0.2669,5.42313 6.81626,6.25288 1.15532,2.84492 2.25186,-0.8594 -1.12545,-3.70432 -3.40813,-1.68917 -2.28173,-9.69048 -4.26764,-5.95655 -0.29677,-2.84491 -5.68986,-7.97169 -0.26595,-8.23841 6.25258,3.97103 1.42223,5.68983 0.8595,3.40797 -0.0299,0.0296 -0.82963,0.82976 0.8595,1.12611 0,-1.89661 0.26691,1.06685 3.70395,5.09714 2.28173,0.59268 -0.29583,2.25223 5.12715,5.12678 -1.12642,2.28187 5.12618,3.14126 0,1.9855 7.94268,7.9717 2.84444,6.25288 -1.42222,2.54857 1.15629,0.85939 -1.98592,0.56307 0.82963,1.7188 8.26837,7.379 6.54936,1.7188 3.67408,2.84492 4.56344,1.42246 14.78786,4.56371 9.69059,-2.28185 9.44006,5.4349 1.75466,-6.28031 5.45378,-0.59082 -0.11947,-1.55439 -3.93618,-2.23417 1.36923,-0.46707 -0.0241,-2.30501 7.65457,-1.20025 3.26746,-3.91357 z"
         id="path5345"
         sodipodi:nodetypes="cccccccccccccccccccccccccccccccccccccccccccccccccccccccccccccccccccccccccccccccccccccccccccccccccccccccccccccccccccccccccccccccccccccccccccccccccccccccccccccccccccccccccccccccccccccccccccccccccccccccccccccccccccccccccccccccccccccccccccccccccccccccccccccccccccccccccccccccccccccccccccccccccccccccccccccccccccccccccccccccccccccccccccccccccccccccccccccccccccccccccccccccccccccccccccccccccccccccccccccccccccccccccccccccccccccccccccccccccccccccccccccccccccccccccccccccccccccccccccccccccccccccccccccccccccccccccccccccccccccccccccccccccccccccccccccccccccccccccccccccccccccccccccccccccccccccccccccccccccccccccccccccccccccccccccccccccccccccccccccccccccccccccccccccccccccccccccccccccc"
         inkscape:connector-curvature="0" />
      <g
         style="fill:#008080"
         transform="translate(-72.57075,194.12718)"
         id="g5216">
        <g
           style="fill:#008080"
           id="g3829">
          <g
             style="fill:#008080"
             transform="matrix(0.9590971,0,0,0.9590971,657.24485,-62.356315)"
             id="g10978">
            <path
               id="path5317"
               d="m -442.92727,204.10192 -1.17445,1.48311 0.58672,0.58708 0.86501,-0.83426 -0.27728,-1.23593 z"
               style="fill:#008080;fill-opacity:1;fill-rule:nonzero;stroke:none"
               inkscape:connector-curvature="0" />
            <path
               id="path5315"
               d="m -442.64999,205.33785 -1.17344,1.42132 1.48288,0 -0.30944,-1.42132 z"
               style="fill:#008080;fill-opacity:1;fill-rule:nonzero;stroke:none"
               inkscape:connector-curvature="0" />
            <path
               id="path5313"
               d="m -499.28669,164.95368 -2.53275,0.27809 1.04987,0 0.30944,0.89605 1.17344,-1.17414 z"
               style="fill:#008080;fill-opacity:1;fill-rule:nonzero;stroke:none"
               inkscape:connector-curvature="0" />
            <path
               id="path5311"
               d="m -501.81944,165.23177 0.15371,-1.17414 -2.96575,-0.58707 1.48288,1.48312 1.20458,1.17414 0.12458,-0.89605 z"
               style="fill:#008080;fill-opacity:1;fill-rule:nonzero;stroke:none"
               inkscape:connector-curvature="0" />
            <path
               id="path5309"
               d="m -481.79757,145.36411 -1.76117,-0.30898 -0.30943,1.20503 1.79231,0.27809 0.27829,-1.17414 z"
               style="fill:#008080;fill-opacity:1;fill-rule:nonzero;stroke:none"
               inkscape:connector-curvature="0" />
            <path
               id="path5299"
               d="m -476.45278,127.87564 -1.48288,0.86515 0,3.86231 1.79232,0.58705 -0.30944,-5.31451 z"
               style="fill:#008080;fill-opacity:1;fill-rule:nonzero;stroke:none"
               inkscape:connector-curvature="0" />
            <path
               id="path5269"
               d="m -486.83393,142.98494 -0.58773,3.27522 1.48389,0 1.17344,-1.7921 -2.0696,-1.48312 z"
               style="fill:#008080;fill-opacity:1;fill-rule:nonzero;stroke:none"
               inkscape:connector-curvature="0" />
            <path
               id="path5257"
               d="m -508.77169,161.67846 -1.1433,1.42133 2.03946,-0.2472 -0.89616,-1.17413 z"
               style="fill:#008080;fill-opacity:1;fill-rule:nonzero;stroke:none"
               inkscape:connector-curvature="0" />
            <path
               id="path5255"
               d="m -509.91499,163.09979 -0.18586,0 0.12357,0.0618 0.0623,-0.0618 z"
               style="fill:#008080;fill-opacity:1;fill-rule:nonzero;stroke:none"
               inkscape:connector-curvature="0" />
            <path
               id="path5253"
               d="m -510.10085,163.09979 -1.94603,-0.83427 1.48288,0.89606 0.46315,-0.0618 z"
               style="fill:#008080;fill-opacity:1;fill-rule:nonzero;stroke:none"
               inkscape:connector-curvature="0" />
            <path
               id="path5249"
               d="m -475.86505,169.40305 -1.17445,1.48313 2.37904,0 -1.20459,-1.48313 z"
               style="fill:#008080;fill-opacity:1;fill-rule:nonzero;stroke:none"
               inkscape:connector-curvature="0" />
            <path
               id="path5247"
               d="m -480.90141,169.99012 -1.17445,0.58706 0,2.0702 0.89616,0 -1.48288,0.89605 3.83077,0 0,-1.17414 0.61786,1.17414 1.48389,-1.48313 -0.89616,-1.79209 -1.48388,0.89604 0.27829,-1.17413 -1.76117,2.37917 -0.30843,-2.37917 z"
               style="fill:#008080;fill-opacity:1;fill-rule:nonzero;stroke:none"
               inkscape:connector-curvature="0" />
            <path
               id="path5233"
               d="m -443.515,174.13049 -1.20459,2.68816 0,-2.10108 1.20459,-0.58708 z"
               style="fill:#008080;fill-opacity:1;fill-rule:nonzero;stroke:none"
               inkscape:connector-curvature="0" />
            <path
               id="path5215"
               d="m -438.47864,182.44216 -0.89616,4.14038 -1.76116,0.30899 2.0706,-2.65727 -2.0706,-0.61796 1.76116,0.30899 0.89616,-1.48313 z"
               style="fill:#008080;fill-opacity:1;fill-rule:nonzero;stroke:none"
               inkscape:connector-curvature="0" />
            <path
               id="path5193"
               d="m -447.68635,189.85776 -0.86501,3.8623 0.86501,-1.48312 1.20559,1.48312 -0.89615,-2.68816 1.17444,1.79211 0.89616,-0.89605 -2.38004,-2.0702 z"
               style="fill:#008080;fill-opacity:1;fill-rule:nonzero;stroke:none"
               inkscape:connector-curvature="0" />
            <path
               id="path5189"
               d="m -444.41116,190.44484 -2.37903,5.93248 2.0706,-0.89605 1.20459,-3.24433 -0.89616,-1.7921 z"
               style="fill:#008080;fill-opacity:1;fill-rule:nonzero;stroke:none"
               inkscape:connector-curvature="0" />
            <path
               id="path5179"
               d="m -446.20247,196.9644 -1.76116,4.17127 1.48287,-2.68816 0.27829,-1.48311 z"
               style="fill:#008080;fill-opacity:1;fill-rule:nonzero;stroke:none"
               inkscape:connector-curvature="0" />
            <path
               id="path5177"
               d="m -445.5846,196.9644 -0.61787,2.68816 1.20459,0.58705 1.17445,-1.7921 -1.76117,-1.48311 z"
               style="fill:#008080;fill-opacity:1;fill-rule:nonzero;stroke:none"
               inkscape:connector-curvature="0" />
            <path
               id="path5167"
               d="m -446.20247,199.93064 -1.17444,3.27523 1.17444,0.58706 -1.48388,1.20504 1.20559,1.7612 0.27829,1.79211 1.20459,-2.37917 -1.48288,-1.17414 1.76117,0.27808 -1.48288,-5.34541 z"
               style="fill:#008080;fill-opacity:1;fill-rule:nonzero;stroke:none"
               inkscape:connector-curvature="0" />
            <path
               id="path5143"
               d="m -449.75595,209.72542 -0.89615,5.03644 1.79231,5.34541 -0.89616,-3.86229 1.48288,-0.58707 -1.48288,-1.17414 3.55348,-3.27523 -3.24505,1.48313 1.48389,-1.48313 -1.79232,-1.48312 z"
               style="fill:#008080;fill-opacity:1;fill-rule:nonzero;stroke:none"
               inkscape:connector-curvature="0" />
            <path
               id="path5129"
               d="m -441.75383,217.14103 -0.86501,2.68815 0.58772,-0.30898 0,2.07019 0.27729,-4.44936 z"
               style="fill:#008080;fill-opacity:1;fill-rule:nonzero;stroke:none"
               inkscape:connector-curvature="0" />
            <path
               id="path5127"
               d="m -437.30419,217.14103 3.27519,0.30898 3.27519,2.37917 -2.10074,0.27809 -1.76117,-2.65726 -2.68847,1.17414 2.10074,-1.17414 -2.10074,-0.30898 z"
               style="fill:#008080;fill-opacity:1;fill-rule:nonzero;stroke:none"
               inkscape:connector-curvature="0" />
            <path
               id="path5103"
               d="m -444.71959,228.72791 0.30843,1.76121 2.07061,0 -2.07061,1.48313 2.07061,0.89605 0.30943,0.58707 1.76117,5.6544 2.68747,-0.30898 -1.48288,2.07017 4.72793,2.68816 -2.65733,-8.31165 -0.58772,-1.7921 -7.13711,-4.72746 z"
               style="fill:#008080;fill-opacity:1;fill-rule:nonzero;stroke:none"
               inkscape:connector-curvature="0" />
          </g>
        </g>
        <path
           id="path5401"
           d="m 344.51182,19.867331 -1.12544,1.422456 2.28173,1.155749 -0.56369,0.859395 -0.5926,0.266716 4.00073,3.141265 -6.25259,-2.844921 1.98495,2.844921 -1.98495,-1.422465 -1.15627,3.704315 -1.12545,-1.155749 1.42223,-2.844902 -1.42223,-1.985524 -1.42318,1.718809 -1.42223,-0.859405 -0.29581,4.534092 -1.4232,-1.689171 0.85951,-2.844921 -3.14123,3.704326 2.84541,1.689161 -0.2669,0 -3.14123,0.296335 0.8595,1.422475 2.28173,-1.15576 1.42222,0.59269 -3.40813,1.12612 3.11232,0 -0.85951,0.859405 -1.12641,-0.56306 -1.42222,0.56306 3.08149,0.266706 1.18614,0.592689 -5.12713,0.266716 3.70395,1.985501 -2.54863,0 0.56368,1.422466 -2.28172,-1.689171 -1.42319,1.985522 0.29678,0.296352 3.11136,0.829763 -2.84445,-0.563067 -0.85951,0.563067 2.28173,2.281845 -1.42222,0 1.42222,1.15576 -1.42222,-0.592693 -0.26691,3.141254 1.12641,0.859408 1.71804,-1.15575 1.1264,3.704311 -1.98495,1.155751 -1.15627,4.267377 4.56345,1.126115 2.28173,-1.718798 0.85949,1.155741 -2.57753,1.126114 2.57753,-0.563057 -4.00073,1.985513 3.70492,0 -0.8595,1.422456 1.719,0.859409 2.28172,-0.296352 -1.42221,-0.829763 1.98495,0 0.85949,-2.015159 2.84541,-0.563047 1.42223,0.563047 7.11209,2.015159 0.2669,1.985504 0.56272,-1.155741 4.00073,3.437606 3.11135,0.829772 -1.12544,0.859409 1.12544,-0.266725 0.71208,1.39282 0.14743,1.452101 2.5785,-0.592702 -2.28172,-2.844903 2.28172,1.718798 1.42223,-1.422466 -0.29582,1.985533 1.12545,-1.422456 0,1.985494 0.59259,-1.126105 0,0.859408 1.42319,-0.563066 -0.85951,0.829763 3.40815,0.859408 -3.70492,0.563057 -1.42223,1.718808 4.26764,0 1.98495,-1.718808 0.29677,0.296333 1.71901,3.141273 1.12544,-0.859399 0.56369,1.126104 -1.42319,-0.266705 2.28269,1.689162 0.29581,1.718817 1.98592,-0.296361 -4.26764,1.718807 2.28172,-0.296342 -1.719,0.859409 1.12642,1.985513 0.85949,-3.111637 0,0.829763 1.98592,-1.689152 -2.54864,4.534074 2.84445,-1.985514 -2.28173,2.844922 2.84445,-0.563047 -0.85853,1.718798 1.71804,-0.592703 0.29677,-2.548571 1.12641,-0.296341 -1.42318,5.423109 1.9859,-1.718798 -0.85949,2.281864 2.01481,0.563057 0.26691,-2.54857 1.42223,-0.296351 -1.42223,3.141273 0.56369,-0.563067 1.42222,1.985523 0.59259,-1.422456 -0.29677,1.689162 1.719,1.422456 0,-3.111618 -1.719,-1.155751 4.26763,1.422457 -2.28172,0.592693 1.42222,-0.296352 -1.12641,2.548571 1.98591,-1.689162 -1.42222,1.985504 1.1264,-0.563038 0,1.689161 1.42223,-1.126123 -0.26691,1.422456 1.42223,-0.85939 -1.15532,1.155741 1.71901,-0.859399 1.12544,1.985523 0,-1.718808 0.85949,2.578207 1.98592,-0.563067 0.29582,1.422466 0.8595,-1.15576 0,1.422466 0.26691,-1.126105 0.59258,1.126105 0.82964,-0.266706 -0.56273,1.126114 1.42223,-1.422466 -0.56272,1.422466 1.719,-1.126114 1.98494,1.422446 1.68914,-4.267368 0.29678,2.844922 0.29581,-2.015159 0.56368,2.281865 0.26595,-1.689172 1.15628,1.126114 -0.29677,-1.718807 1.15627,2.578206 -0.29678,-2.281845 1.42223,1.985504 -0.29582,-1.689172 2.01483,-0.592693 -2.84446,0 1.68914,-1.689162 -1.68914,0 0.26691,-1.718798 -1.42318,0.85939 1.15627,-1.126105 -1.42222,0 0.56272,-1.422456 -1.15628,0.563057 0.59356,-1.422456 -0.85951,0.563047 0,-1.718798 -2.84541,-0.266724 1.42223,-0.563038 -2.28172,0 1.1264,-2.015159 -1.68912,-0.829763 1.42221,-0.296332 -1.98494,-0.296361 1.42222,-0.563048 -1.15628,0 0.56369,-1.422466 -1.68913,0.296352 1.68913,-0.859399 -1.68913,-0.859409 -1.42319,0.563048 0.8595,-1.689152 -3.43704,-1.155751 1.42223,-0.829772 -1.42223,-1.422456 -0.26691,-0.296342 1.42223,-2.281855 -2.84445,-2.281874 1.12544,-0.563038 0.85951,1.718798 1.12641,-0.296352 -1.42223,-0.859408 1.15532,0.296351 0.26691,-2.281845 -1.42223,-0.266725 1.15532,-1.155751 -4.00073,-4.830416 -0.26691,-1.985522 -2.84445,-0.859399 2.54864,0 0.85949,-1.718798 -1.1264,-0.829773 1.1264,0 -0.29677,-4.267368 -3.67408,-6.549233 -0.29678,-0.563067 -2.54863,2.548571 0.82963,2.844912 0,0.296361 -0.26691,0.266706 -0.85854,0.563047 -0.56369,-2.844912 -0.53285,1.303921 0.53285,-2.726377 -1.98494,-0.563048 1.42222,3.378334 0,0.02963 -0.59259,1.422456 -1.98591,-2.844912 1.15628,-0.563047 -0.59259,-1.985523 -2.54864,2.54857 0,-1.422456 -1.719,0.296342 4.00073,-2.281865 4.26667,0.296361 -1.42223,-1.422475 1.68914,0.563076 0,-1.126124 -2.54863,0 -1.42223,-1.15575 -0.29581,0.563067 -0.8306,-0.829763 0,1.126105 -0.8595,-0.859409 -2.84444,0.859409 0.85949,1.422465 -0.85949,-0.563076 -0.56274,0.859408 0.26595,-1.718797 -1.42222,0 0.56369,1.718797 -1.68914,0.266706 0,-2.54857 -1.15627,2.281864 0,-1.422456 -1.42223,0.266716 1.719,-0.563057 -0.8595,-1.718808 -2.28173,0.296351 2.28173,-0.563057 -1.12641,-0.563057 1.42223,-1.422466 -0.85951,1.422466 2.28269,-0.592703 -0.29678,-2.252217 -1.68912,-0.592689 -1.15629,0.859405 1.71901,0.859397 -1.98495,0 -2.01578,-1.126113 1.719,-1.422455 0.29678,-0.296345 -0.8595,-0.859405 -0.56369,0.859405 -0.59259,0.56306 -1.68913,-0.859404 -0.85951,1.422455 0.29678,-1.689161 -2.01482,1.12611 2.28173,-1.422465 0.29582,-0.266715 -2.57755,-0.859405 -0.26691,0.266715 -1.15627,1.15576 -0.56273,-1.71881 -0.56272,1.422455 -2.28173,0 0.29582,-1.985515 0,-1.422455 -2.28172,-0.563051 -0.85951,1.126101 -0.26691,0.56307 -0.29581,-0.829766 -0.29677,-0.59269 -0.82964,0.296336 -0.8595,0.296354 1.42223,1.126101 -1.98495,-0.56306 -3.14123,-2.281841 -4.26763,-2.28187 0.56272,1.422464 0,0.296336 -1.42222,-0.296336 -0.26691,-0.266715 -1.15532,-2.578205 -0.56272,1.985516 0,0.592689 -0.29678,-0.592689 -0.56273,-2.84492 -3.70491,-1.422456 z"
           style="fill:#008080;fill-opacity:1;fill-rule:nonzero;stroke:none"
           inkscape:connector-curvature="0" />
        <g
           id="g10928"
           style="fill:#008080;fill-opacity:1"
           transform="matrix(0.9590971,0,0,0.9590971,657.24485,-62.356315)">
          <path
             style="fill:#008080;fill-opacity:1;fill-rule:nonzero;stroke:none"
             d="m -285.71707,148.02137 -1.48288,1.20504 1.17445,0 0,1.48311 0.30843,-2.68815 z"
             id="path5399"
             inkscape:connector-curvature="0" />
          <path
             style="fill:#008080;fill-opacity:1;fill-rule:nonzero;stroke:none"
             d="m -290.16571,140.01869 -2.0706,0.89606 -0.58672,2.07019 2.65732,-2.96625 z"
             id="path5397"
             inkscape:connector-curvature="0" />
          <path
             style="fill:#008080;fill-opacity:1;fill-rule:nonzero;stroke:none"
             d="m -297.89054,94.937971 1.79232,1.174136 0.30843,-1.174136 -2.10075,0 z"
             id="path5387"
             inkscape:connector-curvature="0" />
          <path
             style="fill:#008080;fill-opacity:1;fill-rule:nonzero;stroke:none"
             d="m -292.82303,98.491293 -1.20559,0.587063 0.58772,0.896056 0.61787,-1.483119 z"
             id="path5379"
             inkscape:connector-curvature="0" />
          <path
             style="fill:#008080;fill-opacity:1;fill-rule:nonzero;stroke:none"
             d="m -344.45452,102.3536 -2.0706,1.7921 0.30943,-1.20505 -5.65422,1.20505 -1.17445,1.17413 -0.89616,1.17413 2.07061,1.79211 -3.55349,-0.89606 -0.58672,1.20505 1.76117,0.86515 -2.34889,-0.58706 -2.37904,2.07018 1.76117,0 -0.27829,1.20504 1.76117,-0.89606 -1.17345,2.0702 3.2752,-1.76121 -2.96676,2.07019 1.76116,0.89606 2.96677,-2.68816 -1.76117,1.7921 0,0.89606 1.48287,-1.48312 1.17445,0 -0.58772,1.17413 1.48388,-0.89605 0.27729,-0.89606 1.20559,-2.65726 -0.58773,2.37918 1.76217,-0.30898 -2.0706,1.48312 -1.79231,1.48311 2.96676,2.37919 -3.24505,-1.7921 -2.37904,0 4.14021,4.17128 1.48388,-0.30901 -1.17445,1.20505 1.17445,0.86516 -2.65733,-0.86516 -1.48388,0.86516 0,2.37917 1.17445,-1.17414 0.89615,0.89605 0,-1.7921 1.20459,3.86229 1.76217,-2.37917 -1.17444,3.27523 -4.17135,-1.48312 2.10074,2.34827 -2.68746,2.68816 1.48288,0.58706 -0.2783,-1.48312 1.48288,1.48312 -0.30843,-1.17413 1.17345,1.17413 -0.27729,-1.17413 1.76117,0.86516 0.61786,-1.48313 1.48288,0.61797 -0.61786,-1.20504 1.48287,1.20504 -0.86501,-1.48312 2.65733,2.07019 0.89615,-0.58707 1.48288,-1.20504 -0.58672,-2.07018 -2.10175,0 -2.0696,0.30898 -0.89615,-2.1011 2.37903,0.61798 1.48288,0 -0.58672,-2.37918 2.0696,-0.58708 -1.48288,-0.61795 1.48288,-0.86516 -1.76117,-0.30899 1.48388,-0.89606 -4.17135,-0.58706 3.55349,-0.89606 -3.55349,-0.27808 3.55349,-1.7921 -1.48389,-0.89606 2.37904,-0.27807 -0.27729,-1.48312 -1.48388,0 1.48388,-0.61798 -1.20559,-0.86515 1.20559,0.27809 0.58672,-4.72746 -2.37903,2.34828 0.89615,-2.0702 -2.0706,0 2.3489,-0.58705 0.61786,-2.07021 -0.30943,-1.48311 -2.37904,-0.89604 z"
             id="path5373"
             inkscape:connector-curvature="0" />
          <path
             style="fill:#008080;fill-opacity:1;fill-rule:nonzero;stroke:none"
             d="m -288.09611,102.3536 0,1.7921 0.43301,-0.52528 -0.43301,1.11233 1.79232,0 2.0706,-1.20503 -3.12148,-0.27808 0.74144,-0.89604 -1.48288,0 z"
             id="path5371"
             inkscape:connector-curvature="0" />
          <path
             style="fill:#008080;fill-opacity:1;fill-rule:nonzero;stroke:none"
             d="m -288.68283,102.66257 -2.0706,0.86515 0.58772,1.48313 1.48288,-2.34828 z"
             id="path5367"
             inkscape:connector-curvature="0" />
          <path
             style="fill:#008080;fill-opacity:1;fill-rule:nonzero;stroke:none"
             d="m -359.87304,112.14837 -1.17344,2.07019 1.48288,1.17415 -2.10175,0.61795 1.79231,1.48312 -1.79231,-0.61796 0,0.89604 2.10175,0.309 -0.61787,2.07018 4.17135,-0.30897 -3.27519,1.20503 2.68747,1.48312 -1.20459,0.58707 0.89615,0.89605 2.65733,0 -0.86501,-1.7921 1.48288,1.48312 -0.30944,-3.24433 0.89616,1.48311 1.76117,-2.96623 -1.17445,-1.20505 -1.17344,0.58708 -1.2056,-3.24433 -0.27728,1.48312 -4.75908,-4.44936 z"
             id="path5355"
             inkscape:connector-curvature="0" />
          <path
             style="fill:#008080;fill-opacity:1;fill-rule:nonzero;stroke:none"
             d="m -369.08074,119.84207 0.30943,2.10107 1.48288,0.2781 -1.17445,1.7921 1.48388,-0.58707 2.65632,1.48313 0.89616,0.58706 -0.89616,-2.68816 -0.30843,-0.86516 -4.44963,-2.10107 z"
             id="path5351"
             inkscape:connector-curvature="0" />
          <path
             style="fill:#008080;fill-opacity:1;fill-rule:nonzero;stroke:none"
             d="m -374.11711,121.63417 -2.37903,1.48312 3.58463,-0.30899 -1.2056,-1.17413 z"
             id="path5349"
             inkscape:connector-curvature="0" />
          <path
             style="fill:#008080;fill-opacity:1;fill-rule:nonzero;stroke:none"
             d="m -362.53036,121.94314 0.27829,2.96626 1.79231,0.58706 0.89616,-2.07019 -2.96676,-1.48313 z"
             id="path5347"
             inkscape:connector-curvature="0" />
          <path
             style="fill:#008080;fill-opacity:1;fill-rule:nonzero;stroke:none"
             d="m -377.08286,124.29142 -0.27829,1.48313 2.0696,0.89605 1.17444,-1.7612 -2.96575,-0.61798 z"
             id="path5307"
             inkscape:connector-curvature="0" />
          <path
             style="fill:#008080;fill-opacity:1;fill-rule:nonzero;stroke:none"
             d="m -383.60311,125.49646 -1.17344,0.89606 -4.44964,3.24432 2.34789,-0.58707 0.30944,1.48312 0.30843,0.30899 3.24505,-3.27522 0,2.07018 3.27519,-3.24432 -1.48388,-0.89606 -2.37904,0 z"
             id="path5305"
             inkscape:connector-curvature="0" />
          <path
             style="fill:#008080;fill-opacity:1;fill-rule:nonzero;stroke:none"
             d="m -358.39016,125.77455 -2.37903,0.89605 2.96676,0.30898 -0.58773,-1.20503 z"
             id="path5303"
             inkscape:connector-curvature="0" />
          <path
             style="fill:#008080;fill-opacity:1;fill-rule:nonzero;stroke:none"
             d="m -355.73283,126.39252 1.20559,1.17414 0.27829,-1.17414 -1.48388,0 z"
             id="path5301"
             inkscape:connector-curvature="0" />
          <path
             style="fill:#008080;fill-opacity:1;fill-rule:nonzero;stroke:none"
             d="m -373.80767,129.04977 -1.79231,1.79211 0.89615,3.55332 -2.65732,-0.30899 -2.96676,-4.72745 -1.20459,0.86516 1.20459,0.61796 -2.68747,0.58707 2.0696,0.27808 -2.96576,0.89607 2.37904,0 -3.55348,1.20503 2.0706,1.48313 2.37904,-1.79212 -0.30944,1.79212 3.58463,-0.30901 -4.44964,1.48314 2.0706,1.48312 5.03636,-1.79211 3.27519,0.30899 0.86502,-3.27524 -1.17445,-0.86515 -0.58672,1.76121 -1.20559,-0.89606 -0.27729,-4.14038 z"
             id="path5297"
             inkscape:connector-curvature="0" />
          <path
             style="fill:#008080;fill-opacity:1;fill-rule:nonzero;stroke:none"
             d="m -361.04648,129.04977 1.76117,2.96625 2.68747,-0.89604 1.76116,5.34541 2.96677,1.48312 1.48287,-1.79211 1.20459,1.79211 5.03737,-1.17415 -0.30944,-1.4831 2.37904,1.17413 1.79231,-1.48314 0.58672,-0.89604 -0.89616,0 -0.58672,0 0.27829,-0.89606 0,-1.17413 -0.58772,0 -2.0696,-0.58707 -5.03636,2.65726 -2.96676,-0.89606 0,1.20505 -1.48288,-2.0702 -1.20459,0.86515 0.89616,-1.17413 -1.76117,-0.58707 2.65632,-0.30897 -2.65632,-0.58709 0.58672,-0.58706 -2.68847,1.17415 -0.58672,-2.07021 -3.24405,0 z"
             id="path5295"
             inkscape:connector-curvature="0" />
          <path
             style="fill:#008080;fill-opacity:1;fill-rule:nonzero;stroke:none"
             d="m -383.60311,130.22392 -2.65732,1.48311 1.48388,0 1.17344,-1.48311 z"
             id="path5293"
             inkscape:connector-curvature="0" />
          <path
             style="fill:#008080;fill-opacity:1;fill-rule:nonzero;stroke:none"
             d="m -362.83879,130.22392 -0.58773,1.20503 -0.89616,-0.30897 -1.17344,-0.2781 1.17344,2.34827 -2.06959,-2.07017 0.89615,2.68815 -2.10175,0.58707 3.27519,-0.30899 0.30944,0 -0.30944,0.58707 -0.89515,0.89606 0.89515,1.48311 2.38004,-0.27809 0.89616,-1.4831 -1.79231,-5.06734 z"
             id="path5291"
             inkscape:connector-curvature="0" />
          <path
             style="fill:#008080;fill-opacity:1;fill-rule:nonzero;stroke:none"
             d="m -358.08072,134.08621 -2.10075,2.68815 3.86192,1.17415 -1.76117,-3.8623 z"
             id="path5289"
             inkscape:connector-curvature="0" />
          <path
             style="fill:#008080;fill-opacity:1;fill-rule:nonzero;stroke:none"
             d="m -394.57198,134.98225 0.27829,2.65728 -6.21081,5.65439 1.48388,0.58708 0.58672,4.14037 4.14021,-0.58706 1.20559,-2.0702 0.58672,-0.30898 8.31155,-4.14038 -2.0706,-3.27522 -2.10075,0.61796 -0.86501,-1.20504 -1.20559,-1.76119 -4.1402,-0.30901 z"
             id="path5287"
             inkscape:connector-curvature="0" />
          <path
             style="fill:#008080;fill-opacity:1;fill-rule:nonzero;stroke:none"
             d="m -298.47726,136.77436 -1.76217,1.17415 0.58772,0.58706 1.48288,1.48312 1.48288,-1.17413 0.58773,1.48312 1.17344,-2.37917 -2.34789,-0.89606 -1.20459,-0.27809 z"
             id="path5285"
             inkscape:connector-curvature="0" />
          <path
             style="fill:#008080;fill-opacity:1;fill-rule:nonzero;stroke:none"
             d="m -338.80029,138.84456 -0.89616,0.27809 1.76117,2.68816 0.30943,0 1.17445,0.58706 4.17035,-1.48312 -2.96576,-2.07019 -3.55348,0 z"
             id="path5283"
             inkscape:connector-curvature="0" />
          <path
             style="fill:#008080;fill-opacity:1;fill-rule:nonzero;stroke:none"
             d="m -347.11184,140.01869 -2.68847,3.27523 0.30943,7.10663 4.44964,0.30897 2.96576,-0.58705 -2.37904,-2.68816 -1.17445,-2.96625 0.89616,-4.44937 -2.37903,0 z"
             id="path5279"
             inkscape:connector-curvature="0" />
          <path
             style="fill:#008080;fill-opacity:1;fill-rule:nonzero;stroke:none"
             d="m -351.86991,140.60577 -6.52025,0.30898 1.17445,8.00267 2.10175,-2.07017 -1.20559,-1.17415 2.96676,-0.30899 1.48288,-4.75834 z"
             id="path5277"
             inkscape:connector-curvature="0" />
          <path
             style="fill:#008080;fill-opacity:1;fill-rule:nonzero;stroke:none"
             d="m -365.49612,141.50181 0.58672,1.79211 -1.48287,-0.30898 2.06959,0.89606 0.30944,0.30897 -0.30944,0.86516 -0.30843,0.89606 -2.65732,-1.48313 -0.89616,1.7921 3.86191,4.14039 1.17445,1.20503 1.48288,-0.30898 0,-0.89605 1.79231,-0.27808 0.30944,-4.17128 -2.68847,-1.17414 1.79231,-2.96624 -3.86292,-0.309 -1.17344,0 z"
             id="path5275"
             inkscape:connector-curvature="0" />
          <path
             style="fill:#008080;fill-opacity:1;fill-rule:nonzero;stroke:none"
             d="m -383.29367,141.81081 -6.55038,2.37916 -1.76117,2.65728 1.76117,0.89604 -1.17445,0.89606 4.75807,0.27807 -5.34479,0.89605 0.27829,2.0702 5.93252,0.58707 3.27519,2.10109 -9.486,-0.30899 0,0.30899 0.58672,2.65725 4.1402,2.37919 0.30944,2.37916 7.10696,0 4.44864,-2.96624 2.10175,2.65727 5.62308,-0.30898 -0.89616,-2.07021 -1.48288,1.79211 -0.27829,-2.68816 1.48288,0.89605 1.76117,-1.7612 0.89616,1.17415 0,-1.48314 0,-0.58706 -5.34479,-3.8623 -0.2783,-7.41561 -1.79231,-2.07019 -2.0706,0.27808 -0.30843,6.55047 -2.07061,-5.9325 -1.17344,0 0.86501,2.34828 -1.17445,-0.86515 -0.58672,1.17415 -1.48388,-0.309 1.48388,-1.48312 -1.79231,-1.48313 -2.96676,1.48313 1.20559,-3.24432 z"
             id="path5273"
             inkscape:connector-curvature="0" />
          <path
             style="fill:#008080;fill-opacity:1;fill-rule:nonzero;stroke:none"
             d="m -372.91151,141.81081 -0.61887,0.89604 2.38004,2.0702 0.89615,-2.37918 -2.65732,-0.58706 z"
             id="path5271"
             inkscape:connector-curvature="0" />
          <path
             style="fill:#008080;fill-opacity:1;fill-rule:nonzero;stroke:none"
             d="m -332.00276,153.95386 -0.86502,0.61797 -0.89615,0.58708 1.17445,0 0.58672,-1.20505 z"
             id="path5265"
             inkscape:connector-curvature="0" />
          <path
             style="fill:#008080;fill-opacity:1;fill-rule:nonzero;stroke:none"
             d="m -361.04648,157.81616 -1.48388,4.17127 4.1402,1.7612 2.07061,-1.7612 -4.72693,-4.17127 z"
             id="path5263"
             inkscape:connector-curvature="0" />
          <path
             style="fill:#008080;fill-opacity:1;fill-rule:nonzero;stroke:none"
             d="m -320.13773,158.71222 -1.48288,0.58705 2.37904,0 -0.89616,-0.58705 z"
             id="path5261"
             inkscape:connector-curvature="0" />
          <path
             style="fill:#008080;fill-opacity:1;fill-rule:nonzero;stroke:none"
             d="m -325.17409,159.02119 1.20559,4.44937 2.34789,-1.48313 -0.58672,-2.68816 -2.96676,-0.27808 z"
             id="path5259"
             inkscape:connector-curvature="0" />
        </g>
        <g
           style="fill:#008080"
           id="g10962"
           transform="matrix(0.9590971,0,0,0.9590971,657.24485,-62.356315)">
          <path
             style="fill:#008080;fill-opacity:1;fill-rule:nonzero;stroke:none"
             d="m -340.59261,139.43163 -3.86191,2.37918 2.07061,0.89604 -2.3489,0.27809 2.3489,0.89606 -2.65733,-0.309 3.27519,3.27525 -1.79231,-0.89606 -0.89616,1.20503 2.68847,1.17415 0.27729,2.96623 -0.58672,-0.89605 -6.51924,1.48312 1.48288,2.07019 1.76116,0.89606 2.10075,-1.48312 1.17445,2.07018 0.58672,0 5.93251,-0.86515 -0.89515,-0.30899 -1.76117,-0.89604 2.37904,0.89604 1.76117,0.89607 -1.17445,-1.20505 -0.58672,-0.27808 2.65732,0 2.0696,-0.30898 -0.58672,-0.27809 -1.48288,-1.20504 0.58673,-1.48312 2.37903,2.37917 1.17445,0.89606 0.30843,-1.20504 0.30943,1.48312 1.48288,-0.58706 1.76117,1.20503 -0.58672,2.65725 1.17344,-1.7921 2.68847,1.48313 0.58773,-0.86515 5.03636,4.44936 -0.27829,2.65726 1.76117,-0.30899 -1.76117,0.61797 -1.20559,2.96624 2.96676,2.34827 -3.55348,2.10111 -3.2752,0 0.30944,4.44936 6.82767,-1.79211 -1.20459,-2.0702 2.96576,1.76121 -0.27729,-1.48311 2.65733,2.96624 3.27519,0 -1.48388,1.20503 1.48388,0.89605 13.03848,0.2781 -9.486,-4.72746 3.27519,0.58706 -1.48288,-1.48312 8.00312,2.0702 -3.55348,-4.14038 2.65732,1.48313 -1.79231,-2.68816 -2.65732,-0.58708 0.89615,-0.89605 -2.0706,-1.17415 -0.61787,1.48313 -1.48288,-1.48313 0.61787,1.48313 -3.27519,-3.27524 -0.89616,1.48314 -1.76117,-2.37918 2.3489,-0.58707 -2.96676,-1.7612 2.10074,-0.89605 2.3489,1.48311 0,-1.48311 0.61786,2.07019 1.17445,-2.65727 -0.30944,2.96624 5.3458,1.7612 -2.65733,-3.86227 2.37904,0.61796 -2.10075,-1.7921 2.10075,-0.309 -2.37904,-0.58706 2.0696,-0.89605 -1.79131,-0.58707 1.20459,-0.89606 -2.0706,-0.86515 0,2.07019 -0.89515,-1.20504 -1.2056,1.48313 -0.27829,-2.65727 0,2.0702 -0.30843,-1.48312 -1.17445,1.7921 0.58673,-1.48311 -1.48288,0.27807 1.17445,-0.58706 -2.07061,-1.17414 -0.58672,1.17414 0,0.30899 -1.48288,-1.20505 0.58672,1.48312 -0.89615,-1.7612 0,1.48313 -0.86502,-1.48313 -0.30943,0.89605 -1.17344,-1.20503 -1.2056,0.89604 1.48389,-1.48312 -4.72793,0.30899 2.34789,-0.89605 -1.48288,-1.20504 -0.86501,1.20504 0.86501,-1.48314 -1.76117,0 3.86292,-0.58705 -1.48389,-0.89606 -4.17134,1.48311 3.55348,-2.37915 -0.58672,-0.89606 -0.27829,0 -1.79232,-0.89606 -0.58672,1.79212 0,-0.89606 -1.48288,1.48311 1.48288,-2.96623 -2.37903,-0.27809 -0.58773,1.76121 0,-2.0702 -0.58672,4.14039 -0.30843,-2.07019 -0.89616,0.89606 0.30843,-3.27524 -1.48288,2.68816 0.2783,-2.96624 -2.3489,-0.89605 -0.61787,2.96625 -1.17344,-2.96625 -0.89616,2.96625 -0.27829,-2.0702 -0.89615,0.27808 0.89615,-2.07019 -2.68847,1.79211 0.58773,-2.96624 -3.55348,0 -0.89616,1.48311 2.68747,0.58708 -2.68747,0.30897 2.37904,1.48313 -4.14021,-2.1011 0,0.61797 -0.58772,2.07019 -0.30844,-3.55331 -2.96676,-3.27522 z"
             id="path5281"
             inkscape:connector-curvature="0" />
          <path
             style="fill:#008080;fill-opacity:1;fill-rule:nonzero;stroke:none"
             d="m -335.24681,171.16425 1.17445,1.20504 1.48288,0 -2.65733,-1.20504 z"
             id="path5243"
             inkscape:connector-curvature="0" />
          <path
             style="fill:#008080;fill-opacity:1;fill-rule:nonzero;stroke:none"
             d="m -337.31741,172.36929 0.86601,8.00269 -1.48388,2.65725 2.96676,-1.17414 1.48288,2.37917 3.27519,-5.34541 1.48288,1.7612 3.27519,0.30899 1.17445,-1.79211 -2.07061,-1.17414 -1.79131,1.17414 -0.27829,-2.34828 -6.24195,-2.96624 -0.58672,1.17413 -2.0706,-2.65725 z"
             id="path5239"
             inkscape:connector-curvature="0" />
          <path
             style="fill:#008080;fill-opacity:1;fill-rule:nonzero;stroke:none"
             d="m -291.06186,177.09675 -1.48389,0.89604 1.48389,0.58707 0,-1.48311 z"
             id="path5229"
             inkscape:connector-curvature="0" />
          <path
             style="fill:#008080;fill-opacity:1;fill-rule:nonzero;stroke:none"
             d="m -318.93214,179.47592 -1.79231,0.30898 1.48288,1.17414 0.30943,-1.48312 z"
             id="path5225"
             inkscape:connector-curvature="0" />
          <path
             style="fill:#008080;fill-opacity:1;fill-rule:nonzero;stroke:none"
             d="m -326.34854,183.6163 -2.37903,0.89604 -1.48288,2.0702 0.89616,1.20504 2.96575,-4.17128 z"
             id="path5211"
             inkscape:connector-curvature="0" />
          <path
             style="fill:#008080;fill-opacity:1;fill-rule:nonzero;stroke:none"
             d="m -321.31117,184.51234 0.30843,3.27524 0.86501,-1.48313 -1.17344,-1.79211 z"
             id="path5209"
             inkscape:connector-curvature="0" />
          <path
             style="fill:#008080;fill-opacity:1;fill-rule:nonzero;stroke:none"
             d="m -306.17195,188.06565 0.86602,1.20505 -3.83178,0.27808 2.96576,-1.48313 z"
             id="path5199"
             inkscape:connector-curvature="0" />
        </g>
        <g
           id="g11003"
           style="fill:#008080;fill-opacity:1"
           transform="matrix(0.9590971,0,0,0.9590971,657.24485,-62.356315)">
          <path
             style="fill:#008080;fill-opacity:1;fill-rule:nonzero;stroke:none"
             d="m -305.89366,193.41109 0.30944,0 2.37903,0.58706 -3.27519,0.30899 0.58672,-0.89605 z"
             id="path5185"
             inkscape:connector-curvature="0" />
          <path
             style="fill:#008080;fill-opacity:1;fill-rule:nonzero;stroke:none"
             d="m -302.03074,202.03173 -0.89616,1.48312 1.20459,0.27808 -2.68747,1.20504 2.37904,-2.96624 z"
             id="path5161"
             inkscape:connector-curvature="0" />
          <path
             style="fill:#008080;fill-opacity:1;fill-rule:nonzero;stroke:none"
             d="m -300.54786,207.34625 0.30843,0 1.48388,1.20503 -2.10175,0 0.30944,-1.20503 z"
             id="path5149"
             inkscape:connector-curvature="0" />
          <path
             style="fill:#008080;fill-opacity:1;fill-rule:nonzero;stroke:none"
             d="m -312.4129,209.44733 -0.58672,3.55331 1.48288,-1.20503 0.27829,0.89606 0,-0.89606 -1.17445,-2.34828 z"
             id="path5145"
             inkscape:connector-curvature="0" />
          <path
             style="fill:#008080;fill-opacity:1;fill-rule:nonzero;stroke:none"
             d="m -312.72233,225.76168 -2.0696,1.48312 3.86191,0.58705 -1.79231,-2.07017 z"
             id="path5115"
             inkscape:connector-curvature="0" />
        </g>
        <g
           style="fill:#008080"
           id="g10972"
           transform="matrix(0.9590971,0,0,0.9590971,657.24485,-62.356315)">
          <path
             style="fill:#008080;fill-opacity:1;fill-rule:nonzero;stroke:none"
             d="m -248.94752,206.48109 -0.86501,5.93248 1.17344,2.96626 1.17445,2.34827 -1.17445,0.89605 1.79231,1.20503 -1.48287,0 -0.61787,4.14039 2.37903,-1.7921 -1.17444,4.17127 1.17444,0.89606 1.48288,-2.1011 4.17135,-1.17413 1.17445,-3.27523 0.58672,2.68816 2.68847,-2.96624 -1.20559,4.72744 1.79231,-1.48312 0.27829,-5.03643 1.48288,1.20503 0.89616,2.96624 0.30943,-2.68815 1.17344,2.37917 1.2056,-0.58706 -1.2056,-4.44937 -0.89515,-0.58706 -0.58772,1.7612 -0.58672,-2.96624 0,3.27523 -1.48288,-0.58707 0.30843,-1.20504 -1.20459,-0.27808 1.20459,-2.68816 -2.10075,2.37917 -0.86501,-4.44937 -2.10175,1.48312 -0.86501,-1.17414 -0.61787,3.55332 -0.58672,-2.37918 -1.76117,1.79212 0,-2.96626 -1.48388,1.17414 -0.30843,-0.30899 -0.30943,-0.58705 0,0.89604 0,2.37918 -0.27729,-2.07019 -0.89616,-5.6544 -1.48388,-0.58707 1.17445,-0.58708 -1.48288,-0.58706 z"
             id="path5153"
             inkscape:connector-curvature="0" />
          <path
             style="fill:#008080;fill-opacity:1;fill-rule:nonzero;stroke:none"
             d="m -271.19471,212.41357 2.10175,1.17414 -1.2056,0.30899 -0.89615,-1.48313 z"
             id="path5135"
             inkscape:connector-curvature="0" />
          <path
             style="fill:#008080;fill-opacity:1;fill-rule:nonzero;stroke:none"
             d="m -259.60797,223.3825 -4.75807,1.48313 7.72483,0.27807 0,-1.17413 -2.96676,-0.58707 z"
             id="path5119"
             inkscape:connector-curvature="0" />
          <path
             style="fill:#008080;fill-opacity:1;fill-rule:nonzero;stroke:none"
             d="m -251.01813,235.83453 -5.03636,2.65728 -1.48287,-2.34828 0,2.34828 5.03636,0.61796 1.48287,-3.27524 z"
             id="path5089"
             inkscape:connector-curvature="0" />
        </g>
      </g>
      <g
         transform="translate(-72.57075,194.12718)"
         style="fill:#ffffff;fill-opacity:1"
         id="g4079">
        <g
           style="fill:#ffffff;fill-opacity:1"
           id="g3966">
          <g
             style="fill:#ffffff;fill-opacity:1"
             id="g3894">
            <path
               id="path5171"
               d="m 391.45293,128.27047 0.59259,1.12611 -1.42222,-0.2667 0.82963,-0.85941 z"
               style="fill:#ffffff;fill-opacity:1;fill-rule:nonzero;stroke:none"
               inkscape:connector-curvature="0" />
            <path
               id="path5165"
               d="m 388.9043,129.98927 0.85949,1.12611 -1.42222,0 0.56273,-1.12611 z"
               style="fill:#ffffff;fill-opacity:1;fill-rule:nonzero;stroke:none"
               inkscape:connector-curvature="0" />
            <path
               id="path5159"
               d="m 393.73466,133.66396 2.84541,2.28185 1.719,-0.56305 -1.98591,1.7188 -1.71901,-0.29635 -0.56272,1.98552 1.42223,0.8594 -1.15532,0.29635 -0.56368,-1.7188 -3.97087,-1.71881 0.85951,1.42245 -2.28173,-3.11163 5.12714,3.11163 0.82963,-0.82976 -0.26691,-0.29635 1.42223,-0.8594 -1.719,-2.28185 z"
               style="fill:#ffffff;fill-opacity:1;fill-rule:nonzero;stroke:none"
               inkscape:connector-curvature="0" />
            <path
               id="path5141"
               d="m 382.08898,139.35377 0.56274,0.85941 -1.42223,1.15574 0.85949,-2.01515 z"
               style="fill:#ffffff;fill-opacity:1;fill-rule:nonzero;stroke:none"
               inkscape:connector-curvature="0" />
            <path
               id="path5133"
               d="m 387.77885,141.93198 0.56272,2.28188 -1.42222,0.2667 0.8595,-2.54858 z"
               style="fill:#ffffff;fill-opacity:1;fill-rule:nonzero;stroke:none"
               inkscape:connector-curvature="0" />
            <path
               id="path5121"
               d="m 391.45293,149.60733 0.59259,5.12678 -2.19308,-2.54858 -0.0887,-0.0296 0.0299,-0.0593 -1.18519,-1.36319 2.84445,-1.12612 z"
               style="fill:#ffffff;fill-opacity:1;fill-rule:nonzero;stroke:none"
               inkscape:connector-curvature="0" />
            <path
               id="path5111"
               d="m 390.89021,155.00082 1.719,2.5782 0.8595,1.12611 -1.42319,-0.8594 -0.8595,-0.56305 -0.29581,-2.28186 z"
               style="fill:#ffffff;fill-opacity:1;fill-rule:nonzero;stroke:none"
               inkscape:connector-curvature="0" />
            <path
               id="path5105"
               d="m 380.93271,155.86022 -1.68914,6.54922 -0.59258,-3.97101 2.28172,-2.57821 z"
               style="fill:#ffffff;fill-opacity:1;fill-rule:nonzero;stroke:none"
               inkscape:connector-curvature="0" />
            <path
               id="path5101"
               d="m 389.46798,159.56454 2.57754,1.7188 -2.01482,-0.8594 -1.42222,1.9855 0.8595,-2.8449 z"
               style="fill:#ffffff;fill-opacity:1;fill-rule:nonzero;stroke:none"
               inkscape:connector-curvature="0" />
            <path
               id="path5095"
               d="m 371.83471,160.42394 -1.12544,1.68916 -0.85951,-1.42246 1.98495,-0.2667 z"
               style="fill:#ffffff;fill-opacity:1;fill-rule:nonzero;stroke:none"
               inkscape:connector-curvature="0" />
            <path
               id="path5093"
               d="m 375.80653,160.987 1.42223,0.29634 -0.56369,1.68917 -0.85854,-1.98551 z"
               style="fill:#ffffff;fill-opacity:1;fill-rule:nonzero;stroke:none"
               inkscape:connector-curvature="0" />
            <path
               id="path5091"
               d="m 370.41249,163.8319 0.29678,0 0.82963,1.42246 0,0.29637 -1.42223,1.42244 0.29582,-1.42244 0,-1.71883 z"
               style="fill:#ffffff;fill-opacity:1;fill-rule:nonzero;stroke:none"
               inkscape:connector-curvature="0" />
          </g>
          <g
             style="fill:#ffffff;fill-opacity:1"
             id="g3855">
            <path
               id="path5267"
               d="m 255.48985,82.751815 -2.01483,4.56373 4.56345,2.844902 0.56272,4.534074 -1.42221,2.578216 4.56344,5.097153 -0.29581,2.01514 0,-2.01514 -4.26763,-5.097153 1.15628,-2.281855 -1.15628,-5.126767 -3.11136,-0.859409 -1.15628,-2.54856 2.57851,-3.704331 z"
               style="fill:#ffffff;fill-opacity:1;fill-rule:nonzero;stroke:none"
               inkscape:connector-curvature="0" />
            <path
               id="path5251"
               d="m 273.68584,96.413329 0.29581,0 1.1264,1.126124 -2.28172,0.859398 0,0.563067 2.28172,0.859399 1.98592,-1.126124 -1.42319,3.971027 -3.11136,-1.1261 -0.29678,1.9855 -1.12544,0.26671 -2.57851,0.8594 2.28173,-2.54857 -3.70395,1.68917 -2.28172,-1.68917 3.43704,-1.7188 -0.85951,-1.12611 2.84541,0.563067 -2.84541,-1.718807 -3.40717,0.592683 0.26595,-1.718798 9.39478,-0.563066 z"
               style="fill:#ffffff;fill-opacity:1;fill-rule:nonzero;stroke:none"
               inkscape:connector-curvature="0" />
            <path
               id="path5245"
               d="m 283.93914,100.94743 1.12641,0 -0.56369,2.01514 -0.56272,-2.01514 z"
               style="fill:#ffffff;fill-opacity:1;fill-rule:nonzero;stroke:none"
               inkscape:connector-curvature="0" />
            <path
               id="path5241"
               d="m 312.65535,102.10316 0,0.26673 0.56272,1.15573 -1.42222,0.56307 0.8595,-1.98553 z"
               style="fill:#ffffff;fill-opacity:1;fill-rule:nonzero;stroke:none"
               inkscape:connector-curvature="0" />
            <path
               id="path5237"
               d="m 287.34728,103.79233 2.84444,3.70433 -0.56272,1.15574 -2.28172,-4.86007 z"
               style="fill:#ffffff;fill-opacity:1;fill-rule:nonzero;stroke:none"
               inkscape:connector-curvature="0" />
            <path
               id="path5235"
               d="m 281.65742,104.08869 3.40813,2.28185 -0.29678,1.12612 -3.11135,-3.40797 z"
               style="fill:#ffffff;fill-opacity:1;fill-rule:nonzero;stroke:none"
               inkscape:connector-curvature="0" />
            <path
               id="path5231"
               d="m 310.37266,104.65173 -2.25185,1.42248 -0.29679,0 -3.14122,-0.85941 3.14122,-0.26671 2.54864,-0.29636 z"
               style="fill:#ffffff;fill-opacity:1;fill-rule:nonzero;stroke:none"
               inkscape:connector-curvature="0" />
            <path
               id="path5227"
               d="m 286.48778,109.48217 3.14122,0 -2.5785,0.8594 -0.56272,-0.8594 z"
               style="fill:#ffffff;fill-opacity:1;fill-rule:nonzero;stroke:none"
               inkscape:connector-curvature="0" />
            <path
               id="path5223"
               d="m 285.36137,110.07486 1.42222,1.42247 -2.57754,-0.59271 1.15532,-0.82976 z"
               style="fill:#ffffff;fill-opacity:1;fill-rule:nonzero;stroke:none"
               inkscape:connector-curvature="0" />
            <path
               id="path5221"
               d="m 313.21807,110.07486 0.29582,0 -2.84445,1.68916 -2.84542,-0.56304 -1.42221,-0.56305 1.42221,0 5.39405,-0.56307 z"
               style="fill:#ffffff;fill-opacity:1;fill-rule:nonzero;stroke:none"
               inkscape:connector-curvature="0" />
            <path
               id="path5219"
               d="m 291.61395,110.63793 2.28269,2.28184 -4.86023,-0.8594 2.57754,-1.42244 z"
               style="fill:#ffffff;fill-opacity:1;fill-rule:nonzero;stroke:none"
               inkscape:connector-curvature="0" />
            <path
               id="path5217"
               d="m 272.55942,111.20098 0.82963,1.98551 -1.98494,-1.68916 1.15531,-0.29635 z"
               style="fill:#ffffff;fill-opacity:1;fill-rule:nonzero;stroke:none"
               inkscape:connector-curvature="0" />
            <path
               id="path5213"
               d="m 311.52894,113.18649 1.98495,0 -0.56272,0.85941 -1.42223,-0.85941 z"
               style="fill:#ffffff;fill-opacity:1;fill-rule:nonzero;stroke:none"
               inkscape:connector-curvature="0" />
            <path
               id="path5207"
               d="m 275.67078,115.172 4.56441,4.26737 5.9558,-3.11163 3.43801,1.12613 -3.14122,0 1.42222,0.29634 -2.28173,0.26669 1.98592,0 -2.54864,0.59271 -6.81626,4.83042 -2.57851,0 -5.12618,-2.84491 -0.20812,-0.32598 -4.62224,-0.82977 4.00073,-0.26671 0.62151,1.09648 0.20812,0.0296 0,0.29634 3.43705,1.42246 1.42222,-2.28187 1.98591,-0.29634 -1.719,-4.26737 z"
               style="fill:#ffffff;fill-opacity:1;fill-rule:nonzero;stroke:none"
               inkscape:connector-curvature="0" />
            <path
               id="path5205"
               d="m 286.48778,117.45387 -1.98592,0 -0.56272,1.15574 2.54864,-1.15574 z"
               style="fill:#ffffff;fill-opacity:1;fill-rule:nonzero;stroke:none"
               inkscape:connector-curvature="0" />
            <path
               id="path5203"
               d="m 306.40181,115.172 -0.85951,3.43761 -1.98494,-1.42247 2.84445,-2.01514 z"
               style="fill:#ffffff;fill-opacity:1;fill-rule:nonzero;stroke:none"
               inkscape:connector-curvature="0" />
            <path
               id="path5201"
               d="m 312.65535,117.45387 0.85854,2.28184 -2.28172,-0.8594 1.42318,-1.42244 z"
               style="fill:#ffffff;fill-opacity:1;fill-rule:nonzero;stroke:none"
               inkscape:connector-curvature="0" />
            <path
               id="path5197"
               d="m 307.2613,118.87631 0.56272,1.42247 0.29679,1.15575 -0.29679,-0.29636 -1.12544,-0.56305 0.56272,-1.71881 z"
               style="fill:#ffffff;fill-opacity:1;fill-rule:nonzero;stroke:none"
               inkscape:connector-curvature="0" />
            <path
               id="path5195"
               d="m 289.629,119.43937 -2.01481,3.43762 -0.56369,-1.15576 2.5785,-2.28186 z"
               style="fill:#ffffff;fill-opacity:1;fill-rule:nonzero;stroke:none"
               inkscape:connector-curvature="0" />
            <path
               id="path5191"
               d="m 303.85317,119.73571 1.12641,0 -1.42222,1.42246 0.29581,-1.42246 z"
               style="fill:#ffffff;fill-opacity:1;fill-rule:nonzero;stroke:none"
               inkscape:connector-curvature="0" />
            <path
               id="path5187"
               d="m 297.30381,121.72123 0.56368,1.15576 -2.28172,1.68916 1.71804,-2.84492 z"
               style="fill:#ffffff;fill-opacity:1;fill-rule:nonzero;stroke:none"
               inkscape:connector-curvature="0" />
            <path
               id="path5181"
               d="m 299.85244,126.28495 -1.42223,2.28185 0,-1.7188 1.42223,-0.56305 z"
               style="fill:#ffffff;fill-opacity:1;fill-rule:nonzero;stroke:none"
               inkscape:connector-curvature="0" />
            <path
               id="path5175"
               d="m 310.66944,126.55167 -1.719,2.28185 0.8595,0.85939 -1.42223,-0.29633 0.56273,2.57821 -1.12642,-0.85941 -0.29581,-0.29634 0.29581,-1.12613 0.29679,-1.9855 2.54863,-1.15574 z"
               style="fill:#ffffff;fill-opacity:1;fill-rule:nonzero;stroke:none"
               inkscape:connector-curvature="0" />
            <path
               id="path5173"
               d="m 302.69785,127.41108 0.56273,3.14124 -1.42222,-1.15574 0.85949,-1.9855 z"
               style="fill:#ffffff;fill-opacity:1;fill-rule:nonzero;stroke:none"
               inkscape:connector-curvature="0" />
            <path
               id="path5169"
               d="m 297.86749,128.5668 0.56272,1.98552 -1.68912,0 1.1264,-1.98552 z"
               style="fill:#ffffff;fill-opacity:1;fill-rule:nonzero;stroke:none"
               inkscape:connector-curvature="0" />
            <path
               id="path5163"
               d="m 286.48778,130.81904 7.67481,2.01515 -7.67481,0 -3.97087,2.25222 -0.59258,-1.12611 -0.26691,0 4.83036,-3.14126 z"
               style="fill:#ffffff;fill-opacity:1;fill-rule:nonzero;stroke:none"
               inkscape:connector-curvature="0" />
            <path
               id="path5155"
               d="m 248.94048,135.38276 0.8595,3.40797 3.97086,1.15575 -3.70395,-0.8594 0.29581,3.97102 -1.42222,-7.67534 z"
               style="fill:#ffffff;fill-opacity:1;fill-rule:nonzero;stroke:none"
               inkscape:connector-curvature="0" />
            <path
               id="path5151"
               d="m 301.00872,136.50887 -0.8595,3.14126 -1.42222,0 0.56272,-2.54857 1.719,-0.59269 z"
               style="fill:#ffffff;fill-opacity:1;fill-rule:nonzero;stroke:none"
               inkscape:connector-curvature="0" />
            <path
               id="path5147"
               d="m 303.55736,138.22768 -0.56369,5.12677 -3.40717,2.84491 0.56272,-2.5782 0,1.7188 1.42223,-1.1261 -0.8595,-3.14128 2.84541,-2.8449 z"
               style="fill:#ffffff;fill-opacity:1;fill-rule:nonzero;stroke:none"
               inkscape:connector-curvature="0" />
            <path
               id="path5139"
               d="m 292.74036,139.65013 0.56368,1.42245 -2.54863,0.56307 1.98495,-1.98552 z"
               style="fill:#ffffff;fill-opacity:1;fill-rule:nonzero;stroke:none"
               inkscape:connector-curvature="0" />
            <path
               id="path5137"
               d="m 312.38844,140.21318 -0.29678,2.57821 -3.70395,1.42247 2.28173,-1.15576 1.719,-2.84492 z"
               style="fill:#ffffff;fill-opacity:1;fill-rule:nonzero;stroke:none"
               inkscape:connector-curvature="0" />
            <path
               id="path5131"
               d="m 286.48778,142.79139 0.11851,0.41489 1.30371,1.57062 -0.56272,1.06685 0,0.0593 -0.0896,0.0889 -1.3326,2.48929 -0.85951,-2.57819 1.12544,1.15575 1.06667,-1.06685 0.0896,-0.14817 -0.74099,-2.63747 -0.11851,-0.14818 0,-0.26671 z"
               style="fill:#ffffff;fill-opacity:1;fill-rule:nonzero;stroke:none"
               inkscape:connector-curvature="0" />
            <path
               id="path5123"
               d="m 306.69858,147.05877 1.12544,1.98551 -1.71803,-0.29635 0.59259,-1.68916 z"
               style="fill:#ffffff;fill-opacity:1;fill-rule:nonzero;stroke:none"
               inkscape:connector-curvature="0" />
            <path
               id="path5113"
               d="m 312.95117,154.43775 0.8595,1.42247 4.53454,12.53541 -1.12641,3.67468 -0.29678,-5.39348 -1.42222,0.8594 -0.8595,-3.14126 -1.42223,0.85939 -2.54863,-3.97102 1.12641,-0.5927 0.29581,-0.2667 -2.28172,-1.15575 0.8595,-2.25223 2.84445,0.56306 -0.56272,-3.14127 z"
               style="fill:#ffffff;fill-opacity:1;fill-rule:nonzero;stroke:none"
               inkscape:connector-curvature="0" />
            <path
               id="path5109"
               d="m 307.52821,155.29716 0,1.98552 0.29581,-0.26672 1.12642,-0.59268 -1.12642,0.8594 0,1.42245 1.71901,1.71881 -1.71901,-0.56306 -2.54766,-1.15575 1.68913,-0.56305 0.56272,-2.84492 z"
               style="fill:#ffffff;fill-opacity:1;fill-rule:nonzero;stroke:none"
               inkscape:connector-curvature="0" />
            <path
               id="path5097"
               d="m 304.97958,160.1276 1.719,0 1.12544,0.56304 0.85951,0.5927 -0.29582,5.68983 -0.56369,-4.26738 0,-1.15574 -2.84444,-0.26671 0,-1.15574 z"
               style="fill:#ffffff;fill-opacity:1;fill-rule:nonzero;stroke:none"
               inkscape:connector-curvature="0" />
            <path
               id="path5087"
               d="m 310.10671,166.11376 2.84446,6.81595 -1.98495,-4.53408 -1.719,-1.15574 0.85949,-1.12613 z"
               style="fill:#ffffff;fill-opacity:1;fill-rule:nonzero;stroke:none"
               inkscape:connector-curvature="0" />
          </g>
        </g>
        <g
           id="g3803"
           style="fill:#ffffff;fill-opacity:1">
          <path
             style="fill:#ffffff;fill-opacity:1;fill-rule:nonzero;stroke:none"
             d="m 288.7695,167.80293 1.12641,1.15576 -4.53454,1.12611 2.84541,-0.8594 0.56272,-1.42247 z"
             id="path5085"
             inkscape:connector-curvature="0" />
          <path
             style="fill:#ffffff;fill-opacity:1;fill-rule:nonzero;stroke:none"
             d="m 380.36998,168.09929 1.98495,1.42244 -2.84445,-0.29633 0.8595,-1.12611 z"
             id="path5083"
             inkscape:connector-curvature="0" />
          <path
             style="fill:#ffffff;fill-opacity:1;fill-rule:nonzero;stroke:none"
             d="m 331.70988,169.81808 -0.26691,1.98553 -1.98495,0.56304 -2.28172,-1.71879 2.54767,0.8594 1.98591,-1.68918 z"
             id="path5081"
             inkscape:connector-curvature="0" />
          <path
             style="fill:#ffffff;fill-opacity:1;fill-rule:nonzero;stroke:none"
             d="m 340.83775,170.38114 1.12544,1.12612 0,0.29635 -0.56272,2.8449 -2.28173,-1.7188 0.8595,-1.1261 0.85951,-1.42247 z"
             id="path5079"
             inkscape:connector-curvature="0" />
          <path
             style="fill:#ffffff;fill-opacity:1;fill-rule:nonzero;stroke:none"
             d="m 392.04552,173.49277 -5.60025,8.3273 0.1773,-0.0593 -3.97085,5.68982 -1.15532,1.98552 1.15532,2.28187 -1.71901,1.9855 -8.53431,2.28186 1.42223,-2.8449 5.68985,-1.71881 0.56273,-1.42247 -1.98495,0.56307 4.56346,-3.11164 3.79355,-5.63056 -6.63801,1.92624 6.5484,-1.9855 5.68986,-8.26804 z"
             id="path5077"
             inkscape:connector-curvature="0" />
          <path
             style="fill:#ffffff;fill-opacity:1;fill-rule:nonzero;stroke:none"
             d="m 323.47139,173.78911 1.719,2.84492 -2.28173,0 2.28173,0.56306 -3.438,1.42245 1.719,-3.40796 -1.719,0.29634 1.719,-1.71881 z"
             id="path5075"
             inkscape:connector-curvature="0" />
          <path
             style="fill:#ffffff;fill-opacity:1;fill-rule:nonzero;stroke:none"
             d="m 376.66507,174.35217 1.15629,2.84492 -1.71901,-1.12612 0.56272,-1.7188 z"
             id="path5073"
             inkscape:connector-curvature="0" />
          <path
             style="fill:#ffffff;fill-opacity:1;fill-rule:nonzero;stroke:none"
             d="m 341.96319,176.07097 5.39405,0.26671 2.28172,3.14126 3.14123,-0.56305 1.98494,6.25288 11.6765,0 3.11136,2.84493 1.15628,1.12611 -0.5926,1.42246 0,0.59267 -2.84541,0 -2.84444,-2.28184 2.01481,2.54857 -0.29677,5.68982 -1.71804,1.98552 -2.25283,-3.97103 -3.14122,1.98551 1.42223,-3.11162 -1.12545,-4.00067 -5.12714,-1.42246 -0.8595,4.83044 -0.56272,-1.98551 -1.719,2.5782 1.42222,7.379 0,0.29634 -0.56272,4.83043 -2.28173,1.71881 -2.84541,-6.84558 0.8595,-7.11229 -1.98494,0.56305 2.28172,-5.68982 1.42222,1.15575 2.84541,-2.84493 4.83036,-0.29634 -1.42318,-1.68916 -2.28173,0 0,-1.15575 -6.81531,2.28185 -1.719,-1.42246 -1.9859,0.85941 -0.85951,-1.98552 -4.83036,3.67469 -1.71901,0 0.29679,-1.68917 -3.70395,1.12611 7.6748,-8.53475 1.42223,0.29635 0.29678,-1.98552 0,1.68917 1.1264,-0.8594 -0.56368,-1.68917 z"
             id="path5071"
             inkscape:connector-curvature="0" />
          <path
             style="fill:#ffffff;fill-opacity:1;fill-rule:nonzero;stroke:none"
             d="m 327.44224,178.0565 2.84541,2.54856 -2.84541,-1.12612 0,-1.42244 z"
             id="path5069"
             inkscape:connector-curvature="0" />
          <path
             style="fill:#ffffff;fill-opacity:1;fill-rule:nonzero;stroke:none"
             d="m 298.99295,182.02751 1.15627,1.7188 0.8595,-0.85939 0,1.7188 3.40814,0.26671 -4.00073,0 -1.12641,-2.25222 -2.84445,-0.29635 2.54768,-0.29635 z"
             id="path5067"
             inkscape:connector-curvature="0" />
          <path
             style="fill:#ffffff;fill-opacity:1;fill-rule:nonzero;stroke:none"
             d="m 369.28608,182.62021 1.12641,0.56306 -1.98494,0.2667 -1.4232,0 1.4232,-0.56305 0.85853,-0.26671 z"
             id="path5065"
             inkscape:connector-curvature="0" />
          <path
             style="fill:#ffffff;fill-opacity:1;fill-rule:nonzero;stroke:none"
             d="m 289.33222,182.88692 -0.56272,1.42246 -0.29678,-1.12611 -4.53358,1.42245 -0.59259,-1.15575 5.98567,-0.56305 z"
             id="path5063"
             inkscape:connector-curvature="0" />
          <path
             style="fill:#ffffff;fill-opacity:1;fill-rule:nonzero;stroke:none"
             d="m 305.83909,188.8731 0.85949,9.9572 -2.84541,-1.15575 1.98592,-1.42246 0,-7.37899 z"
             id="path5059"
             inkscape:connector-curvature="0" />
          <path
             style="fill:#ffffff;fill-opacity:1;fill-rule:nonzero;stroke:none"
             d="m 375.24285,196.25209 -0.26691,2.28186 -2.28172,2.28186 -4.83036,4.56371 -5.68987,0 1.68914,-4.56371 1.15628,1.12611 -1.719,0.85941 0.56272,1.15575 3.40813,-3.14127 4.86023,-1.42245 -1.15531,0 1.15531,-0.85941 3.11136,-2.28186 z"
             id="path5057"
             inkscape:connector-curvature="0" />
          <path
             style="fill:#ffffff;fill-opacity:1;fill-rule:nonzero;stroke:none"
             d="m 309.80994,201.11216 2.84541,3.97102 -2.54864,-1.9855 -0.29677,-1.98552 z"
             id="path5055"
             inkscape:connector-curvature="0" />
          <path
             style="fill:#ffffff;fill-opacity:1;fill-rule:nonzero;stroke:none"
             d="m 265.44734,207.9281 2.25185,3.70433 -0.82963,-0.85941 -0.5926,1.71879 -0.82962,-4.56371 z"
             id="path5053"
             inkscape:connector-curvature="0" />
          <path
             style="fill:#ffffff;fill-opacity:1;fill-rule:nonzero;stroke:none"
             d="m 271.40411,225.857 -1.12642,2.84491 -3.14122,0.8594 4.26764,-3.70431 z"
             id="path5049"
             inkscape:connector-curvature="0" />
          <path
             style="fill:#ffffff;fill-opacity:1;fill-rule:nonzero;stroke:none"
             d="m 256.91206,229.56131 0,1.68916 0.82964,-0.26671 1.15628,2.25224 -1.15628,-1.98553 -2.84445,0.29636 2.01481,-1.98552 z"
             id="path5045"
             inkscape:connector-curvature="0" />
          <path
             style="fill:#ffffff;fill-opacity:1;fill-rule:nonzero;stroke:none"
             d="m 372.13149,238.65911 0.82963,1.12612 -1.42222,0.29634 0.59259,-1.42246 z"
             id="path5041"
             inkscape:connector-curvature="0" />
          <path
             style="fill:#ffffff;fill-opacity:1;fill-rule:nonzero;stroke:none"
             d="m 320.62693,244.61566 0,1.15575 -1.71899,-0.29634 1.71899,-0.85941 z"
             id="path5039"
             inkscape:connector-curvature="0" />
          <path
             style="fill:#ffffff;fill-opacity:1;fill-rule:nonzero;stroke:none"
             d="m 269.98092,263.40395 1.719,0.8594 -1.42223,1.12611 -0.29677,-1.98551 z"
             id="path5037"
             inkscape:connector-curvature="0" />
          <path
             style="fill:#ffffff;fill-opacity:1;fill-rule:nonzero;stroke:none"
             d="m 382.91862,265.95252 0.29582,2.28186 -1.42223,-0.85939 1.12641,-1.42247 z"
             id="path5033"
             inkscape:connector-curvature="0" />
          <path
             style="fill:#ffffff;fill-opacity:1;fill-rule:nonzero;stroke:none"
             d="m 293.59986,303.52912 1.98591,0 0.8595,0.56305 -2.84541,-0.56305 z"
             id="path5005"
             inkscape:connector-curvature="0" />
          <path
             style="fill:#ffffff;fill-opacity:1;fill-rule:nonzero;stroke:none"
             d="m 298.727,309.48565 3.40813,1.42247 -2.28269,-0.26672 0.29678,1.42246 -1.42222,-2.57821 z"
             id="path5001"
             inkscape:connector-curvature="0" />
        </g>
      </g>
    </g>
    <rect
       style="opacity:0.97600002;fill:#ffffff;fill-opacity:0.79215686;fill-rule:nonzero;stroke:none;filter:url(#filter7156)"
       id="rect6170"
       width="433.37106"
       height="271.55786"
       x="-157.84283"
       y="103.76965"
       ry="17.854225" />
    <path
       style="opacity:0.97600002;fill:#ffffff;stroke:none;filter:url(#filter7160)"
       d="m 64.44102,494.84278 102.53511,-20.82745 91.32034,4.80634 -33.64433,59.27811 -32.04223,8.01056 -64.08445,1.60211 z"
       id="path7138"
       inkscape:connector-curvature="0" />
  </g>
  <g
     inkscape:groupmode="layer"
     id="layer2"
     inkscape:label=""
     transform="translate(226.8768,49.174573)"
     sodipodi:insensitive="true">
    <text
       xml:space="preserve"
       style="font-size:40px;font-style:normal;font-weight:normal;line-height:125%;letter-spacing:0px;word-spacing:0px;fill:#4d4d4d;fill-opacity:1;stroke:none;filter:url(#filter7106);font-family:Sans"
       x="118.77733"
       y="-10.647207"
       id="text6941"
       sodipodi:linespacing="125%"><tspan
         sodipodi:role="line"
         id="tspan6943"
         x="118.77733"
         y="-10.647207">Online trading market size:</tspan></text>
    <text
       xml:space="preserve"
       style="font-size:36px;font-style:normal;font-weight:normal;line-height:125%;letter-spacing:0px;word-spacing:0px;fill:#4d4d4d;fill-opacity:1;stroke:none;filter:url(#filter7092);font-family:Sans"
       x="-147.96373"
       y="332.94873"
       id="text6945"
       sodipodi:linespacing="125%"><tspan
         sodipodi:role="line"
         id="tspan6947"
         x="-147.96373"
         y="332.94873">USA: 42 million (Celent Research)</tspan></text>
    <path
       sodipodi:type="arc"
       style="opacity:0.98999999;fill:#4d4d4d;fill-opacity:0.79215686;fill-rule:nonzero;stroke:none;filter:url(#filter7078)"
       id="path6949"
       sodipodi:cx="-36.848557"
       sodipodi:cy="323.33606"
       sodipodi:rx="5.607389"
       sodipodi:ry="5.607389"
       d="m -31.241168,323.33606 a 5.607389,5.607389 0 1 1 -1.06e-4,-0.0346"
       sodipodi:start="0"
       sodipodi:end="6.2770125"
       sodipodi:open="true"
       transform="translate(-125.53418,-0.8010556)" />
    <text
       xml:space="preserve"
       style="font-size:36px;font-style:normal;font-weight:normal;line-height:125%;letter-spacing:0px;word-spacing:0px;fill:#4d4d4d;fill-opacity:1;stroke:none;filter:url(#filter7064);font-family:Sans"
       x="-163.27956"
       y="180.45189"
       id="text6945-8"
       sodipodi:linespacing="125%"><tspan
         sodipodi:role="line"
         id="tspan6947-5"
         x="-163.27956"
         y="180.45189">Canada: 8-9 million</tspan></text>
    <path
       sodipodi:type="arc"
       style="opacity:0.98999999;fill:#4d4d4d;fill-opacity:0.79215686;fill-rule:nonzero;stroke:none;filter:url(#filter7022)"
       id="path6949-7"
       sodipodi:cx="-36.848557"
       sodipodi:cy="323.33606"
       sodipodi:rx="5.607389"
       sodipodi:ry="5.607389"
       d="m -31.241168,323.33606 a 5.607389,5.607389 0 1 1 -1.06e-4,-0.0346"
       sodipodi:start="0"
       sodipodi:end="6.2770125"
       sodipodi:open="true"
       transform="translate(-140.84999,-153.29789)" />
    <text
       xml:space="preserve"
       style="font-size:36px;font-style:normal;font-weight:normal;line-height:125%;letter-spacing:0px;word-spacing:0px;fill:#4d4d4d;fill-opacity:1;stroke:none;filter:url(#filter7050);font-family:Sans"
       x="205.62263"
       y="238.42313"
       id="text6945-8-6"
       sodipodi:linespacing="125%"><tspan
         sodipodi:role="line"
         id="tspan6947-5-1"
         x="205.62263"
         y="238.42313"> CEO of Recognia: approx. 300 million </tspan><tspan
         sodipodi:role="line"
         x="205.62263"
         y="283.42313"
         id="tspan7020">trading accounts worldwide </tspan></text>
    <path
       sodipodi:type="arc"
       style="opacity:0.98999999;fill:#4d4d4d;fill-opacity:0.79215686;fill-rule:nonzero;stroke:none;filter:url(#filter7036)"
       id="path6949-7-8"
       sodipodi:cx="-36.848557"
       sodipodi:cy="323.33606"
       sodipodi:rx="5.607389"
       sodipodi:ry="5.607389"
       d="m -31.241168,323.33606 a 5.607389,5.607389 0 1 1 -1.06e-4,-0.0346"
       sodipodi:start="0"
       sodipodi:end="6.2770125"
       sodipodi:open="true"
       transform="translate(226.0522,-80.86513)" />
  </g>
</svg>
